<?xml version="1.0" encoding="UTF-8" standalone="no"?>
<!-- Created with Inkscape (http://www.inkscape.org/) -->

<svg
   xmlns:dc="http://purl.org/dc/elements/1.1/"
   xmlns:cc="http://creativecommons.org/ns#"
   xmlns:rdf="http://www.w3.org/1999/02/22-rdf-syntax-ns#"
   xmlns:svg="http://www.w3.org/2000/svg"
   xmlns="http://www.w3.org/2000/svg"
   xmlns:sodipodi="http://sodipodi.sourceforge.net/DTD/sodipodi-0.dtd"
   xmlns:inkscape="http://www.inkscape.org/namespaces/inkscape"
   width="3840"
   height="3840"
   viewBox="0 0 1016 1016"
   version="1.1"
   id="svg8"
   inkscape:version="0.92.4 (5da689c313, 2019-01-14)"
   sodipodi:docname="Asylum Wall Scalable.svg">
  <defs
     id="defs2">
    <filter
       inkscape:label="Button"
       inkscape:menu="Bevels"
       inkscape:menu-tooltip="Soft bevel, slightly depressed middle"
       style="color-interpolation-filters:sRGB"
       id="filter1262-47-1-5-7-9">
      <feGaussianBlur
         stdDeviation="2.3"
         in="SourceAlpha"
         result="result0"
         id="feGaussianBlur1236-80-6-1-9-8" />
      <feMorphology
         in="SourceAlpha"
         radius="6.6"
         result="result1"
         id="feMorphology1238-2-9-8-4-6" />
      <feGaussianBlur
         stdDeviation="8.9"
         in="result1"
         id="feGaussianBlur1240-32-8-1-1-6" />
      <feColorMatrix
         values="1 0 0 0 0 0 1 0 0 0 0 0 1 0 0 0 0 0 0.3 0"
         result="result91"
         id="feColorMatrix1242-2-5-9-2-8" />
      <feComposite
         in="result0"
         operator="out"
         result="result2"
         in2="result91"
         id="feComposite1244-59-5-2-2-6" />
      <feGaussianBlur
         stdDeviation="1.7"
         result="result4"
         id="feGaussianBlur1246-90-4-8-3-1" />
      <feDiffuseLighting
         surfaceScale="10"
         id="feDiffuseLighting1250-4-4-5-7-1">
        <feDistantLight
           azimuth="225"
           elevation="45"
           id="feDistantLight1248-532-8-4-3-1" />
      </feDiffuseLighting>
      <feBlend
         in2="SourceGraphic"
         mode="multiply"
         id="feBlend1252-31-3-6-3-90" />
      <feComposite
         in2="SourceAlpha"
         operator="in"
         result="result3"
         id="feComposite1254-92-9-0-7-4" />
      <feSpecularLighting
         in="result4"
         surfaceScale="5"
         specularExponent="17.89999962"
         id="feSpecularLighting1258-77-5-6-3-1">
        <feDistantLight
           azimuth="225"
           elevation="45"
           id="feDistantLight1256-77-3-9-8-07" />
      </feSpecularLighting>
      <feComposite
         in2="result3"
         operator="atop"
         id="feComposite1260-54-6-7-3-8" />
    </filter>
    <filter
       inkscape:label="Button"
       inkscape:menu="Bevels"
       inkscape:menu-tooltip="Soft bevel, slightly depressed middle"
       style="color-interpolation-filters:sRGB"
       id="filter1234-7-5-3-8-8">
      <feGaussianBlur
         stdDeviation="2.3"
         in="SourceAlpha"
         result="result0"
         id="feGaussianBlur1208-2-7-3-3-6" />
      <feMorphology
         in="SourceAlpha"
         radius="6.6"
         result="result1"
         id="feMorphology1210-8-4-7-4-3" />
      <feGaussianBlur
         stdDeviation="8.9"
         in="result1"
         id="feGaussianBlur1212-194-3-9-3-0" />
      <feColorMatrix
         values="1 0 0 0 0 0 1 0 0 0 0 0 1 0 0 0 0 0 0.3 0"
         result="result91"
         id="feColorMatrix1214-40-0-6-6-9" />
      <feComposite
         in="result0"
         operator="out"
         result="result2"
         in2="result91"
         id="feComposite1216-4-3-3-8-3" />
      <feGaussianBlur
         stdDeviation="1.7"
         result="result4"
         id="feGaussianBlur1218-1-8-4-8-0" />
      <feDiffuseLighting
         surfaceScale="10"
         id="feDiffuseLighting1222-1-9-1-9-3">
        <feDistantLight
           azimuth="225"
           elevation="45"
           id="feDistantLight1220-5-7-7-2-3" />
      </feDiffuseLighting>
      <feBlend
         in2="SourceGraphic"
         mode="multiply"
         id="feBlend1224-0-1-6-1-4" />
      <feComposite
         in2="SourceAlpha"
         operator="in"
         result="result3"
         id="feComposite1226-75-3-3-9-4" />
      <feSpecularLighting
         in="result4"
         surfaceScale="5"
         specularExponent="17.89999962"
         id="feSpecularLighting1230-7-8-6-1-9">
        <feDistantLight
           azimuth="225"
           elevation="45"
           id="feDistantLight1228-0-8-6-2-4" />
      </feSpecularLighting>
      <feComposite
         in2="result3"
         operator="atop"
         id="feComposite1232-64-2-8-6-3" />
    </filter>
    <filter
       inkscape:label="Button"
       inkscape:menu="Bevels"
       inkscape:menu-tooltip="Soft bevel, slightly depressed middle"
       style="color-interpolation-filters:sRGB"
       id="filter1318-9-0-3-4-5">
      <feGaussianBlur
         stdDeviation="2.3"
         in="SourceAlpha"
         result="result0"
         id="feGaussianBlur1292-42-0-8-1-0" />
      <feMorphology
         in="SourceAlpha"
         radius="6.6"
         result="result1"
         id="feMorphology1294-22-3-8-1-2" />
      <feGaussianBlur
         stdDeviation="8.9"
         in="result1"
         id="feGaussianBlur1296-44-7-3-7-6" />
      <feColorMatrix
         values="1 0 0 0 0 0 1 0 0 0 0 0 1 0 0 0 0 0 0.3 0"
         result="result91"
         id="feColorMatrix1298-87-7-0-5-7" />
      <feComposite
         in="result0"
         operator="out"
         result="result2"
         in2="result91"
         id="feComposite1300-9-4-1-2-6" />
      <feGaussianBlur
         stdDeviation="1.7"
         result="result4"
         id="feGaussianBlur1302-48-9-4-5-57" />
      <feDiffuseLighting
         surfaceScale="10"
         id="feDiffuseLighting1306-9-3-1-0-7">
        <feDistantLight
           azimuth="225"
           elevation="45"
           id="feDistantLight1304-29-9-8-3-9" />
      </feDiffuseLighting>
      <feBlend
         in2="SourceGraphic"
         mode="multiply"
         id="feBlend1308-77-2-4-0-8" />
      <feComposite
         in2="SourceAlpha"
         operator="in"
         result="result3"
         id="feComposite1310-81-1-3-6-7" />
      <feSpecularLighting
         in="result4"
         surfaceScale="5"
         specularExponent="17.89999962"
         id="feSpecularLighting1314-39-0-8-6-51">
        <feDistantLight
           azimuth="225"
           elevation="45"
           id="feDistantLight1312-0-3-3-9-8" />
      </feSpecularLighting>
      <feComposite
         in2="result3"
         operator="atop"
         id="feComposite1316-4-3-0-2-0" />
    </filter>
    <filter
       inkscape:label="Button"
       inkscape:menu="Bevels"
       inkscape:menu-tooltip="Soft bevel, slightly depressed middle"
       style="color-interpolation-filters:sRGB"
       id="filter1290-0-4-5-6-9">
      <feGaussianBlur
         stdDeviation="2.3"
         in="SourceAlpha"
         result="result0"
         id="feGaussianBlur1264-41-8-2-4-4" />
      <feMorphology
         in="SourceAlpha"
         radius="6.6"
         result="result1"
         id="feMorphology1266-89-2-5-1-4" />
      <feGaussianBlur
         stdDeviation="8.9"
         in="result1"
         id="feGaussianBlur1268-79-6-6-4-4" />
      <feColorMatrix
         values="1 0 0 0 0 0 1 0 0 0 0 0 1 0 0 0 0 0 0.3 0"
         result="result91"
         id="feColorMatrix1270-9-5-4-3-90" />
      <feComposite
         in="result0"
         operator="out"
         result="result2"
         in2="result91"
         id="feComposite1272-8-3-5-7-3" />
      <feGaussianBlur
         stdDeviation="1.7"
         result="result4"
         id="feGaussianBlur1274-9-3-1-2-9" />
      <feDiffuseLighting
         surfaceScale="10"
         id="feDiffuseLighting1278-8-2-2-9-9">
        <feDistantLight
           azimuth="225"
           elevation="45"
           id="feDistantLight1276-6-6-6-4-2" />
      </feDiffuseLighting>
      <feBlend
         in2="SourceGraphic"
         mode="multiply"
         id="feBlend1280-27-2-9-3-5" />
      <feComposite
         in2="SourceAlpha"
         operator="in"
         result="result3"
         id="feComposite1282-7-4-7-3-41" />
      <feSpecularLighting
         in="result4"
         surfaceScale="5"
         specularExponent="17.89999962"
         id="feSpecularLighting1286-51-0-4-2-1">
        <feDistantLight
           azimuth="225"
           elevation="45"
           id="feDistantLight1284-83-3-9-7-2" />
      </feSpecularLighting>
      <feComposite
         in2="result3"
         operator="atop"
         id="feComposite1288-54-8-0-9-2" />
    </filter>
    <filter
       inkscape:label="Button"
       inkscape:menu="Bevels"
       inkscape:menu-tooltip="Soft bevel, slightly depressed middle"
       style="color-interpolation-filters:sRGB"
       id="filter1346-1-2-8-6-1">
      <feGaussianBlur
         stdDeviation="2.3"
         in="SourceAlpha"
         result="result0"
         id="feGaussianBlur1320-11-4-3-5-6" />
      <feMorphology
         in="SourceAlpha"
         radius="6.6"
         result="result1"
         id="feMorphology1322-0-0-6-8-12" />
      <feGaussianBlur
         stdDeviation="8.9"
         in="result1"
         id="feGaussianBlur1324-77-9-6-4-38" />
      <feColorMatrix
         values="1 0 0 0 0 0 1 0 0 0 0 0 1 0 0 0 0 0 0.3 0"
         result="result91"
         id="feColorMatrix1326-65-5-9-2-2" />
      <feComposite
         in="result0"
         operator="out"
         result="result2"
         in2="result91"
         id="feComposite1328-3-5-9-9-2" />
      <feGaussianBlur
         stdDeviation="1.7"
         result="result4"
         id="feGaussianBlur1330-25-9-8-8-4" />
      <feDiffuseLighting
         surfaceScale="10"
         id="feDiffuseLighting1334-93-6-3-2-4">
        <feDistantLight
           azimuth="225"
           elevation="45"
           id="feDistantLight1332-17-8-9-3-3" />
      </feDiffuseLighting>
      <feBlend
         in2="SourceGraphic"
         mode="multiply"
         id="feBlend1336-90-3-1-7-0" />
      <feComposite
         in2="SourceAlpha"
         operator="in"
         result="result3"
         id="feComposite1338-22-1-8-5-3" />
      <feSpecularLighting
         in="result4"
         surfaceScale="5"
         specularExponent="17.89999962"
         id="feSpecularLighting1342-3-5-2-5-0">
        <feDistantLight
           azimuth="225"
           elevation="45"
           id="feDistantLight1340-8-4-2-3-1" />
      </feSpecularLighting>
      <feComposite
         in2="result3"
         operator="atop"
         id="feComposite1344-4-5-4-0-8" />
    </filter>
    <filter
       inkscape:label="Button"
       inkscape:menu="Bevels"
       inkscape:menu-tooltip="Soft bevel, slightly depressed middle"
       style="color-interpolation-filters:sRGB"
       id="filter1374-48-5-6-2-0">
      <feGaussianBlur
         stdDeviation="2.3"
         in="SourceAlpha"
         result="result0"
         id="feGaussianBlur1348-87-2-6-1-8" />
      <feMorphology
         in="SourceAlpha"
         radius="6.6"
         result="result1"
         id="feMorphology1350-53-4-2-0-84" />
      <feGaussianBlur
         stdDeviation="8.9"
         in="result1"
         id="feGaussianBlur1352-52-8-2-9-4" />
      <feColorMatrix
         values="1 0 0 0 0 0 1 0 0 0 0 0 1 0 0 0 0 0 0.3 0"
         result="result91"
         id="feColorMatrix1354-3-7-9-9-3" />
      <feComposite
         in="result0"
         operator="out"
         result="result2"
         in2="result91"
         id="feComposite1356-49-2-1-1-9" />
      <feGaussianBlur
         stdDeviation="1.7"
         result="result4"
         id="feGaussianBlur1358-5-7-3-0-4" />
      <feDiffuseLighting
         surfaceScale="10"
         id="feDiffuseLighting1362-5-9-0-3-8">
        <feDistantLight
           azimuth="225"
           elevation="45"
           id="feDistantLight1360-14-9-5-1-0" />
      </feDiffuseLighting>
      <feBlend
         in2="SourceGraphic"
         mode="multiply"
         id="feBlend1364-6-8-5-7-8" />
      <feComposite
         in2="SourceAlpha"
         operator="in"
         result="result3"
         id="feComposite1366-82-7-2-6-1" />
      <feSpecularLighting
         in="result4"
         surfaceScale="5"
         specularExponent="17.89999962"
         id="feSpecularLighting1370-74-7-4-8-8">
        <feDistantLight
           azimuth="225"
           elevation="45"
           id="feDistantLight1368-31-1-6-3-5" />
      </feSpecularLighting>
      <feComposite
         in2="result3"
         operator="atop"
         id="feComposite1372-75-3-8-8-5" />
    </filter>
    <filter
       inkscape:collect="always"
       style="color-interpolation-filters:sRGB"
       id="filter1260-4-1-8"
       x="-0.022884894"
       width="1.0457698"
       y="-0.084326915"
       height="1.1686538">
      <feGaussianBlur
         inkscape:collect="always"
         stdDeviation="2.076023"
         id="feGaussianBlur1262-4-9-3" />
    </filter>
  </defs>
  <sodipodi:namedview
     id="base"
     pagecolor="#ffffff"
     bordercolor="#666666"
     borderopacity="1.0"
     inkscape:pageopacity="0.0"
     inkscape:pageshadow="2"
     inkscape:zoom="0.175"
     inkscape:cx="1708.4845"
     inkscape:cy="2008.2308"
     inkscape:document-units="px"
     inkscape:current-layer="layer1"
     showgrid="false"
     units="px"
     inkscape:snap-bbox="true"
     inkscape:bbox-nodes="true"
     inkscape:window-width="1920"
     inkscape:window-height="1000"
     inkscape:window-x="-11"
     inkscape:window-y="-11"
     inkscape:window-maximized="1">
    <inkscape:grid
       type="xygrid"
       id="grid10" />
  </sodipodi:namedview>
  <metadata
     id="metadata5">
    <rdf:RDF>
      <cc:Work
         rdf:about="">
        <dc:format>image/svg+xml</dc:format>
        <dc:type
           rdf:resource="http://purl.org/dc/dcmitype/StillImage" />
        <dc:title></dc:title>
      </cc:Work>
    </rdf:RDF>
  </metadata>
  <g
     inkscape:label="Layer 1"
     inkscape:groupmode="layer"
     id="layer1"
     transform="translate(0,719.00002)">
    <rect
       style="opacity:1;fill:#000000;fill-opacity:1;stroke:none;stroke-width:4.47030449;stroke-linecap:round;stroke-linejoin:round;stroke-miterlimit:4;stroke-dasharray:none;stroke-opacity:0.8960396"
       id="rect4619-8-6"
       width="1016"
       height="1016"
       x="0"
       y="-719"
       inkscape:export-xdpi="96"
       inkscape:export-ydpi="96"
       inkscape:export-filename="C:\Users\scoob\Google Drive (pete@turbolearning.co.uk)\Inkscape\Asylum Default Walls\drawable-xxxhdpi-1440x2560\default_wallpaper.png" />
    <g
       transform="matrix(1.5,0,0,1.5,-174.62502,-1101.0004)"
       id="g1246-0-8-1"
       style="opacity:0.6;filter:url(#filter1260-4-1-8)">
      <path
         inkscape:connector-curvature="0"
         id="path1228-6-4-2"
         style="font-style:normal;font-variant:normal;font-weight:normal;font-stretch:normal;font-size:10.58333302px;line-height:1.25;font-family:Tribal;-inkscape-font-specification:Tribal;letter-spacing:0px;word-spacing:0px;opacity:1;fill:#ffffff;fill-opacity:1;stroke:none;stroke-width:1.31878483"
         d="m 520.07129,590.75708 c -0.45744,-2.23714 -0.9063,-7.6564 -0.76328,-10.19854 -0.0624,-2.42401 -0.0312,-4.8679 0.0936,-7.33166 0.1246,-2.50349 0.2554,-1.10426 0.62884,-3.40906 0.1566,-5.69909 1.0164,-8.33352 1.66998,-10.36016 0.66542,-1.69591 1.52992,-3.70049 2.20372,-4.51364 0.24604,-0.27995 0.3032,0.12462 0.30142,0.33969 0.1972,0.53384 0.53216,1.16172 0.80348,1.729 4.74964,9.78167 11.44974,22.49641 16.79262,32.80965 1.14908,1.65458 0.62178,-0.89318 0.49698,-2.18622 -0.1884,-2.67106 -0.21436,-5.34482 0.1648,-7.79288 0.27844,-2.40901 3.20498,-10.49547 3.61944,-11.71786 0.77738,-1.11952 1.1775,-3.74905 1.86904,-4.63699 0.69332,-1.80213 0.95394,-2.93796 1.51416,-4.32878 1.42382,-2.92511 2.18692,-4.73057 2.44108,-4.78157 0.2392,0.0416 1.188,3.52691 2.20598,6.51734 0.31534,0.71014 0.45034,1.05841 0.49946,1.47004 1.84708,6.47341 2.3997,13.39835 2.43742,18.7532 -0.031,2.1061 -0.2978,7.54314 -0.49318,9.62564 -0.4317,2.03524 -0.131,5.57752 1.32724,-2.20068 0.78858,-4.65904 1.10862,-7.8159 1.29084,-10.22649 0.56022,-5.28516 0.6542,-10.87257 0.0458,-15.60469 -0.1868,-2.02664 -0.50548,-3.95018 -1.00346,-5.81786 -0.77814,-2.68089 -1.09592,-5.22882 -1.702,-7.51049 -0.1388,-0.63783 -0.20828,-1.6014 -0.20828,-2.19747 0.0708,-1.47613 0.1654,-2.38869 0.35178,-3.71198 0.23566,-2.05328 1.34292,-3.5758 2.3059,-3.41738 1.14238,0.29975 2.30974,0.80742 4.28016,3.28332 0.89604,1.06629 0.66696,0.5648 0.49164,-0.35857 -0.1134,-0.41838 -0.23268,-0.85951 -0.33082,-1.22691 -0.31812,-1.18353 -0.72842,-2.6352 -1.31444,-3.58663 -1.12422,-2.81092 -6.03176,-2.75203 -7.46904,-1.99819 -0.6083,0.50579 -1.43678,1.43302 -1.74754,1.71 -1.0148,-1.2036 -2.3791,-2.0507 -4.48212,-2.70889 -0.31056,-0.11412 -0.85386,0.007 -1.33372,-0.29806 -0.65846,-0.72259 -0.9561,0.009 -0.6306,0.41875 0.29512,0.49367 1.48984,0.95621 1.6266,1.07373 1.53086,1.10924 2.7694,3.00317 2.82162,4.38244 -0.0988,2.37804 -1.22304,6.35219 -2.38744,9.3351 -0.7114,1.19371 -0.51948,1.45523 -0.93076,2.58069 -0.67012,1.11386 -1.3004,3.26257 -1.67464,4.21824 -1.369,3.26507 -1.9062,4.88704 -3.26802,8.13796 -0.40708,0.7506 -0.64716,2.35038 -0.97138,2.55142 -0.41774,0.12892 -0.25776,0.35114 -0.36998,0.6781 -0.3573,0.9867 -1.22118,2.79299 -1.74222,3.48639 -0.60714,-0.0793 -3.48602,-5.0271 -5.98792,-9.14216 -0.60142,-1.65477 -2.2498,-4.5829 -3.10988,-6.78857 -0.0574,-0.63238 -0.1958,-0.58422 -0.35658,-0.73895 -1.05818,-2.34455 -1.9553,-4.68964 -3.01028,-7.20065 -0.6472,-0.91405 -0.25066,-0.96961 -0.5349,-1.56044 -1.0284,-1.99567 -2.11392,-4.53512 -2.49972,-6.45844 -0.119,-0.47335 0.014,-1.02567 0.2458,-1.37261 1.21384,-2.26284 3.09556,-2.88469 4.09584,-3.05668 0.99014,0.0816 0.9452,-0.53318 0.20756,-0.62767 -1.23894,-0.29566 -3.28228,-0.4853 -4.74492,0.46721 -0.62226,0.3889 -1.01304,0.87775 -1.5408,1.07292 -0.1556,0.0795 -0.60706,0.16648 -1.03558,0.0484 -1.9364,-1.22199 -3.81364,-0.71812 -5.26684,0.90537 -1.32796,1.37697 -2.13944,2.61269 -3.29714,4.00384 -1.75318,2.44994 -0.73846,2.20378 0.55626,0.89879 0.37348,-0.31792 1.20386,-1.09968 1.78246,-1.25862 0.6345,-0.21892 1.94294,0.14418 2.51472,1.57663 0.31124,0.79476 0.66278,1.36775 0.77114,1.62449 0.38646,1.23892 0.8322,3.3145 0.77142,4.75401 -0.25172,2.01919 -0.85814,5.34362 -1.33184,8.08194 -0.1728,0.84354 -0.3489,1.62592 -0.5209,2.28828 -0.34238,1.82795 -0.42168,4.814 -0.63952,6.76117 -0.2491,2.14585 -0.2957,4.41092 -0.1398,6.7952 0.1868,2.38428 0.59246,8.03665 1.0282,10.46067 0.31758,1.6992 1.28166,5.638 1.975,7.88374 0.44866,1.53072 1.09336,2.56706 0.83862,0.27612 -0.0584,-0.44602 -0.1414,-0.63508 -0.23108,-0.673 z"
         sodipodi:nodetypes="cccccccccccccccccccccccccccccccccccccccccccccccccccccccccccccccccccccccc" />
      <path
         inkscape:connector-curvature="0"
         id="path1230-2-9-6"
         style="font-style:normal;font-variant:normal;font-weight:normal;font-stretch:normal;font-size:10.58333302px;line-height:1.25;font-family:Tribal;-inkscape-font-specification:Tribal;letter-spacing:0px;word-spacing:0px;opacity:1;fill:#ffffff;fill-opacity:1;stroke:none;stroke-width:1.41334295"
         d="m 505.81917,549.0551 c -0.0462,0.83951 0.44372,0.3211 0.6063,0.80421 -0.1114,0.87999 0.87752,0.50957 0.5781,0.84278 -0.1268,0.17108 0.0582,0.65066 0.5374,1.18365 0.5123,0.80735 1.58488,3.35631 2.43262,4.85728 0.24922,0.64987 0.95348,1.952 1.17736,2.98766 -0.152,0.88531 0.54002,0.90121 0.32228,1.30051 -1.421,1.43167 -3.5694,2.68929 -5.5939,3.65098 -1.66718,0.72556 -3.29882,1.4006 -4.79462,1.86021 -1.41368,0.36146 -2.49522,0.45912 -3.69992,0.80058 -4.19132,0.37818 -9.09918,0.24065 -10.61154,-0.018 -0.24478,-0.43692 -2.13174,-0.28403 -1.0833,0.45702 4.38062,1.18029 13.80782,1.5642 19.57876,-0.10498 1.2804,-0.567 2.6155,-0.58354 3.11196,-1.09531 0.45684,-0.17102 2.12904,-0.42517 2.4274,-0.74572 0.1814,-0.18692 0.46308,-0.24061 0.87842,-0.41164 0.36142,-0.0937 0.51094,-0.22825 0.65356,0.55362 0.235,1.31638 0.30466,2.68642 0.3116,3.8992 -0.0772,1.8715 -0.1012,3.5947 -0.51084,5.4503 -0.43324,0.37066 -0.37362,0.95808 -0.42246,1.42817 -0.2076,0.82088 -0.66582,1.60399 -0.87352,2.04864 -0.87948,1.39762 -2.08794,2.68838 -3.18188,3.82998 -2.34848,-0.01 -4.6575,-0.02 -7.07378,-0.26488 -1.3713,-0.26728 -3.4254,-0.51252 -5.30936,-1.10008 -0.21162,-0.49158 -1.2553,-0.28196 -2.44618,-1.05832 -1.16334,-0.78191 -2.18128,-1.63262 -2.97032,-2.48533 -0.37084,-0.45813 -1.0243,-1.11967 -1.49264,-1.94641 0.0932,-0.47079 -0.1562,-0.45299 -0.31398,-0.4697 -0.23212,-0.16464 -0.28084,-0.7119 -0.3132,-0.97359 -0.0202,-1.27413 -1.75504,-0.69276 -0.8196,-0.0465 0.1572,0.31942 0.26424,0.57739 0.21656,0.8679 0.28148,1.04796 1.05,2.70705 1.7555,3.59117 0.95596,1.39915 3.69662,3.52744 5.31628,4.21152 0.62082,0.36994 1.23394,0.62618 2.0472,0.83986 1.1089,0.1654 0.92836,0.36802 1.31674,0.39146 1.1041,0.53814 3.49076,0.95976 3.39842,1.34948 -1.6428,0.68774 -3.22908,1.05254 -4.7175,1.22394 -2.33548,-0.28444 -4.76128,-1.37234 -5.6557,-1.53844 -1.73932,-0.71826 -2.91662,-1.48698 -4.4532,-2.56598 -2.01052,-1.604 -4.12536,-4.16684 -4.47454,-5.67822 -0.29606,-3.20104 -0.0658,-9.3335 0.161,-10.34452 0.2605,-0.58958 0.58056,-0.86393 1.36178,-1.20104 5.01532,-0.36289 12.46088,-0.21279 15.43494,-1.63033 1.87382,-0.46581 3.95738,-1.18654 5.66012,-1.97323 1.32442,-0.54975 2.51138,-1.00301 3.69026,-2.03265 1.46786,-0.99651 0.29988,-0.99996 -0.72344,-0.35507 -0.78116,0.23193 -0.65734,0.69981 -1.11078,0.76624 -0.5143,-0.0341 -2.59188,0.98941 -3.23722,1.1922 -0.71972,-0.049 -0.88542,0.26537 -1.30028,0.47059 -2.58824,0.57263 -6.86878,0.71596 -8.61306,0.78434 -2.5869,0.0614 -9.45094,0.0857 -10.64388,-1.22321 -0.8296,-1.00649 -1.26866,-2.95653 -1.32308,-3.85079 0.1246,-0.99191 0.6572,-3.05991 1.03102,-3.98341 0.58066,-0.30928 0.46196,-0.56073 0.54158,-0.87248 0.85348,-1.29089 2.66982,-3.46237 3.41734,-4.31746 3.60626,-3.38328 3.0907,-4.24679 -0.80548,-0.71832 -2.5771,1.81724 -5.00308,4.35095 -6.22092,6.6191 -0.72394,0.65132 -1.35832,2.75831 -1.97402,4.12398 -0.1922,1.46491 -0.0848,3.05401 -0.31118,4.46356 -0.63104,1.15593 -3.78654,1.48324 -5.18114,0.38277 -1.03066,-1.01971 -2.49116,-1.24925 -1.09368,-0.01 0.32078,0.44711 0.68884,0.94798 1.12778,1.2664 1.25688,1.03883 3.464,2.42442 4.29602,2.45238 0.60308,0.26835 0.29496,1.76942 0.26024,2.54237 -0.166,0 -0.55118,-0.0839 -0.96658,-0.0154 -0.37398,0.0342 -0.74776,0.0684 -1.1213,0.10262 -0.41534,0.0342 -0.7891,0.0513 -1.12132,0.0513 -0.37358,0 -0.62276,-0.0342 -0.74754,-0.10262 -0.49836,-0.17102 -1.52218,-0.65322 -1.9375,-0.92684 -1.41242,-0.65009 -2.38462,-2.26504 -1.52272,-0.0154 0.24816,0.26858 0.59664,0.60719 1.05652,1.02121 1.3196,1.01943 2.39112,2.2871 4.05346,2.95542 1.3134,0.74724 1.16208,-0.0818 2.32816,0.92424 0.197,0.45735 -0.1012,1.25295 1.44754,3.47252 0.63646,1.03178 2.186,2.87267 3.84586,4.59757 0.85482,0.79846 2.12552,1.88778 2.87084,2.72734 1.5843,1.34254 3.53134,2.44718 5.72082,3.48094 0.92402,0.20166 -0.35544,0.439 3.60228,1.65608 0.99898,0.0528 0.74662,0.38564 1.0247,0.38396 1.1289,0.4089 3.08282,0.48284 3.76576,0.83112 1.5645,0.49952 4.55172,1.0028 6.8846,1.41484 1.68402,0.32642 3.14886,0.63794 4.63388,0.80644 1.9288,0.21884 3.85718,0.25372 5.9897,0.35688 1.94042,-0.036 1.96282,-0.31516 -0.22118,-0.69204 -2.62606,-0.44068 -4.6683,-0.71028 -6.52852,-1.28144 -0.61528,-0.23784 -2.3949,-0.82766 -3.18398,-1.10128 -0.62684,-0.25208 -2.83012,-1.23552 -1.65506,-1.49264 0.56456,-0.21916 1.27542,-0.23382 1.9329,-0.39608 1.03874,-0.0636 2.32,-0.71386 2.87178,-0.7451 0.83466,-0.1124 1.5835,-0.3287 2.24662,-0.742 1.58348,-0.67916 3.25298,-1.53378 5.09174,-2.88462 1.66924,-0.96768 2.51734,-2.28494 2.89272,-3.40526 0.20192,-1.58997 0.5226,-3.51153 0.53212,-6.73482 0.34296,-6.95654 -0.26288,-9.42199 -2.7404,-14.48984 -0.27812,-0.20974 -0.65472,-1.11441 -0.738,-1.60502 -0.0266,-0.16562 0.0308,-0.44806 -0.40568,-0.40686 -0.26844,-0.10804 -0.1538,-0.40002 -0.3848,-0.62076 -2.23736,-4.12962 -5.17482,-6.99662 -6.37918,-8.36476 -5.49074,-5.51048 -11.10346,-9.51359 -16.70544,-12.71819 -1.92108,-1.08597 -1.51036,-0.16168 0.67856,1.35205 3.62856,2.76191 10.3621,8.71853 12.59028,12.12809 z"
         sodipodi:nodetypes="ccccccccccccccccccccccccccccccccccccccccccccccccccccccccccccccccccsccccccccccccccccccccccccccccccccccc" />
      <path
         inkscape:connector-curvature="0"
         id="path1232-2-3-3"
         style="font-style:normal;font-variant:normal;font-weight:normal;font-stretch:normal;font-size:10.58333302px;line-height:1.25;font-family:Tribal;-inkscape-font-specification:Tribal;letter-spacing:0px;word-spacing:0px;opacity:1;fill:#ffffff;fill-opacity:1;stroke:none;stroke-width:1.40427864"
         d="m 423.36221,540.70956 c 0.2996,-0.10974 0.5535,-0.36453 0.83226,-0.53444 4.2473,-2.58897 7.641,-3.33196 12.27656,-3.51349 3.3196,-0.20569 5.7171,0.0295 6.07956,-0.47936 0.2499,-0.0951 -0.169,-0.72733 -0.4076,-0.69609 -0.38612,-0.18982 -2.19294,-0.21575 -2.26334,-0.13626 -4.93302,0.0937 -8.74652,0.32318 -12.77796,0.98025 -0.84082,0.1307 -1.78274,0.36256 -2.56906,0.6446 -2.06072,0.80777 -4.2648,1.43422 -6.95342,3.02829 -0.91028,0.72607 -2.73096,1.76085 -3.03184,2.09127 -2.15248,2.13445 2.53232,11.50909 5.61898,15.90543 0.3038,0.43272 0.64306,0.83326 0.776,1.20656 -0.01,0.31772 0.34884,0.60936 0.63232,0.8918 1.23786,2.83649 3.10744,3.56319 7.48728,8.1366 0.81376,0.7378 1.41126,1.38487 1.67564,1.85768 0.23252,1.38328 -5.86982,3.93372 -8.6264,4.03739 -1.64462,0.21822 -2.3306,1.14593 -2.04652,1.17878 0.1994,0.2111 0.84924,0.31044 1.5065,0.0642 0.24556,-0.0768 0.66712,-0.26214 1.1899,-0.30535 1.07008,-0.18776 4.07154,-0.48503 5.22088,-0.61614 0.66486,-0.0957 2.71592,-0.40328 3.04854,-0.54677 0.29282,-0.12344 0.9732,-0.67162 1.1012,-0.23989 0.3411,0.82136 0.28042,4.19462 0.22138,6.35299 0,0.56037 -0.0572,1.39055 -0.1868,2.35319 -0.3124,0.59108 -0.56838,3.09444 -0.87128,3.91452 -0.9462,1.40296 -3.2306,1.21994 -5.4658,1.90132 -3.42164,1.37078 -4.48466,2.24218 -7.05016,3.80236 -1.96958,1.5426 -1.28978,1.40524 -0.28276,1.23722 0.59158,-0.0542 1.01556,-0.2337 1.25672,-0.3735 0.24766,-0.1198 -0.0848,-0.40116 1.20284,-0.48032 0.25456,-0.069 0.1848,-0.22684 0.27616,-0.26348 3.66458,-1.69418 10.15386,-1.04822 12.8802,-0.72006 1.64844,0.2965 2.90152,1.5994 6.72898,0.81514 4.77334,-1.21888 4.28008,-2.12144 5.87016,-2.5072 4.89482,-4.56728 1.8892,-2.46004 -0.56554,-1.76322 -2.14966,0.27732 -3.01856,0.41888 -5.19938,0.39772 -1.64888,-0.7928 -2.30942,-2.06934 -2.31998,-4.57026 -0.0354,-0.31792 -0.0706,-0.85438 -0.106,-1.6094 -0.1422,-2.90803 0.0238,-5.41335 0.22472,-8.34717 0.2596,-1.10297 0.72578,-2.8228 1.32764,-3.50585 0.47198,-0.0613 0.3944,-0.38785 0.42892,-0.60156 0.22134,-0.39848 0.40742,-0.72983 0.77082,-1.13582 2.00236,-2.16253 3.78568,-4.38602 5.8513,-6.59704 0.22464,-0.26845 0.53408,-0.56098 0.50574,-0.85948 0.5989,-0.66023 1.62338,-1.7644 1.63388,-2.08474 1.18878,-1.55307 2.4352,-2.88809 3.237,-4.04686 0.0792,-0.23001 0.38992,-0.97057 1.15918,-1.42033 1.0691,-1.56554 1.42856,-2.15991 1.81956,-2.75604 0.92954,-0.87526 2.27712,-2.95322 2.88684,-3.98693 0.20444,-0.32338 0.1472,-0.48828 0.2611,-0.64959 0.25308,-0.32984 0.69968,-0.66908 0.96236,-1.00842 0.168,-0.1924 0.20324,-0.39479 0.31302,-0.61857 0.7038,-1.17479 3.10762,-2.87171 2.16334,-3.41954 -0.76672,-0.24389 -3.85448,0.42324 -5.65174,1.02239 -0.29916,0.10504 -0.31794,0.32765 -0.8619,0.38054 -1.22532,-0.0671 -2.34218,-0.34489 -2.43478,-2.28074 0.1464,-1.04422 0.1742,-1.54877 0.71158,-2.4843 0.36436,-0.63843 0.8995,-1.417 1.3381,-1.71908 0.45174,-0.0152 0.97852,-0.68487 1.05268,-0.94474 0.29642,-0.71376 -1.83104,-0.0478 -1.73342,0.47306 -0.38166,0.36009 -0.36834,-0.23798 -2.24522,1.29047 -0.42456,0.34208 -0.82268,0.69365 -1.334,1.32743 -0.21896,0.0726 -1.27004,3.56199 -1.38796,5.37371 -0.0362,0.39152 0.05,0.71539 -0.50722,1.02886 -3.82984,1.68026 -7.95096,3.50332 -11.15774,5.37982 -1.69662,0.97348 -2.38678,1.31893 -3.524,1.82997 -0.38626,0.15694 -0.664,0.31704 -0.69118,0.51369 -0.117,0.23211 -0.27588,0.26692 -0.5352,0.26313 -1.0971,0.50552 -1.62228,1.40753 -0.5656,1.21075 0.24142,-0.0509 0.60798,-0.11306 1.21742,-0.41724 0.87012,-0.40143 2.38712,-1.09835 3.42344,-1.38081 0.71894,-0.0319 1.11766,-0.34462 1.90614,-0.66253 0.88222,-0.35764 3.41794,-1.21096 3.66498,-1.29044 0.27608,-0.0656 0.40586,-0.22859 0.89554,-0.34172 1.30174,-0.29778 2.2832,-0.42358 3.1005,-0.52204 0.4005,0.008 0.75832,-0.25626 1.09846,-0.33371 0.83626,-0.11472 3.2244,-0.28416 3.30662,0.0122 -0.0204,0.73333 -0.36122,1.3036 -0.60422,1.55627 -0.201,0.24009 -0.34698,-0.0625 -0.46868,0.66947 -0.49496,0.90934 -1.07914,1.02669 -1.20598,1.58881 -2.9087,4.30416 -5.20314,6.95333 -8.48908,10.81729 -0.86366,1.06177 -1.36616,1.09254 -2.45966,1.21149 -1.1798,0.0541 -2.2176,-0.19062 -3.85672,-0.95143 -0.74652,-0.35477 -1.65064,-0.98768 -2.66788,-1.8924 -1.41186,-1.19243 -2.79958,-2.3916 -4.10342,-3.57268 -2.975,-2.80725 -4.9967,-6.57426 -6.52648,-9.77098 -0.66006,-1.23056 -1.4097,-2.67407 -1.68168,-3.33102 -0.1008,-0.56833 0.05,-1.12308 1.09004,-2.03906 0.95462,-1.00383 2.2592,-1.9523 2.766,-2.27914 0.1576,-0.0952 0.27778,-0.11086 0.41862,-0.13938 z"
         sodipodi:nodetypes="cccccccccccccccccccccccccccccccccccccccccccccccccccccccccccccccccccccccccccccccccccccccccc" />
      <path
         inkscape:connector-curvature="0"
         id="path1234-4-3-4"
         style="font-style:normal;font-variant:normal;font-weight:normal;font-stretch:normal;font-size:10.58333302px;line-height:1.25;font-family:Tribal;-inkscape-font-specification:Tribal;letter-spacing:0px;word-spacing:0px;opacity:1;fill:#ffffff;fill-opacity:1;stroke:none;stroke-width:1.34659612"
         d="m 468.51613,537.25614 c -1.16876,0.39213 -2.48238,1.63971 -2.90144,2.13635 -1.6797,2.40278 -2.8586,5.17357 -4.55156,7.40027 -0.7215,1.03515 -1.38316,1.73957 -2.22122,2.56211 -0.7482,0.6596 -2.56266,1.32273 -3.36454,1.61142 -3.45084,0.10254 -4.29218,-0.49919 -4.73836,-0.53373 -1.4228,0.21316 0.1204,1.34514 3.33914,3.03632 0.73764,0.56432 2.52192,0.64188 4.18214,0.3923 0.61462,-0.6596 0.95668,-0.26767 1.42782,-0.54873 0.37334,-0.11516 1.52624,-1.15161 2.6319,-1.36124 0.70012,-0.0537 0.40212,4.18476 0.49662,6.20633 0.0278,3.07458 0.028,7.88943 -0.1182,8.56322 -0.40998,0.91505 -1.29452,0.36197 -1.89958,0.78161 -0.52946,0.0639 -0.59726,0.4373 -0.71402,0.53234 -0.24268,0.1116 -0.8381,0.25539 -1.07758,0.52586 -2.65176,1.82914 -1.59352,2.3921 0.2457,1.1784 1.49004,-0.44788 2.41398,-0.38684 3.05328,0.59634 0.41466,1.79604 0.37376,8.14693 0.175,12.79125 -0.0222,1.27436 -0.0932,2.82012 -1.25234,3.88132 -1.15158,1.20404 -1.48746,1.62946 -2.70854,1.81956 -1.38642,0.35546 -0.7302,0.61736 -4.05534,0.64398 -1.01626,-0.24924 -1.5187,-0.799 -2.0801,-1.22314 -1.0804,-1.0104 -1.43202,-0.68592 -0.121,1.11692 1.4178,2.81882 3.916,2.80076 5.60472,3.18228 1.8057,0.39222 4.49174,-0.59534 6.3336,-1.33722 0.48526,-0.186 -0.20438,-0.33836 0.7187,-0.57514 0.60334,-0.1288 1.04136,-0.30972 1.66838,-0.44848 0.20652,-0.22972 0.60038,-0.2805 1.0162,-0.27044 3.98932,-0.1312 11.85718,-0.31948 17.186,0.1418 0.49252,0.136 0.67952,1.60066 0.23644,2.76044 -0.5356,0.5013 0.1604,0.48084 0.50498,0.50558 1.80394,-0.0688 2.57426,-0.1118 3.04434,-1.18908 0.97048,-1.22766 0.99112,-3.05858 0.91236,-5.13836 0.0928,-1.00858 0.78032,-1.86036 0.87986,-2.4509 1.12662,-1.67762 1.62632,-4.0796 2.18418,-6.11921 1.1944,-5.23436 1.10684,-7.38413 1.11612,-8.93263 -0.0274,-1.77847 -0.26874,-1.85051 -1.10132,0.57515 -0.54354,1.49404 -0.56736,2.76692 -1.27626,4.50371 -0.3687,0.0353 -0.40036,0.54817 -0.35484,0.82979 -0.3687,0.75409 -0.48858,1.50818 -0.9502,2.21502 -1.83592,3.37895 -2.9618,4.33607 -3.75854,5.02397 -0.93274,0.86162 -1.5852,1.40402 -2.17,2.05246 -0.85724,0.48306 -1.26098,0.79222 -2.86486,0.9747 -4.55486,0.1148 -9.3562,0.42948 -11.54218,-0.61386 -1.98192,-1.18114 -2.333,-2.06928 -2.63286,-3.55598 -0.24718,-3.33653 -0.29528,-7.2192 -0.4021,-10.50443 1.336,-0.51765 1.8106,-0.76957 2.4907,-1.32419 0.58926,-0.55804 0.73904,-0.55413 1.01628,-1.07496 0.31212,-0.84151 0.81462,-1.68805 0.98778,-2.20889 0.44854,-1.77419 0.51706,-1.98409 -0.63322,-0.62034 -0.8119,1.01187 -1.14186,1.37328 -1.57894,1.48065 -0.45632,0.18854 -2.04824,0.417 -2.0939,-0.21142 0.0736,-2.95478 0.28444,-7.15194 0.3164,-9.68246 0.0694,-2.19493 0.25684,-4.25314 0.32584,-6.41088 0.25388,-2.99824 0.31462,-5.65417 0.7897,-8.46499 0.78398,-2.11686 1.6115,-3.23945 3.02968,-4.38727 2.64966,-1.66628 -1.10354,-1.26906 -2.7509,-0.83347 z"
         sodipodi:nodetypes="cccccccccccccccccccccccccccccccccccccccccccccccccccccccccc" />
      <path
         inkscape:connector-curvature="0"
         id="path1236-8-2-2"
         style="font-style:normal;font-variant:normal;font-weight:normal;font-stretch:normal;font-size:10.58333302px;line-height:1.25;font-family:Tribal;-inkscape-font-specification:Tribal;letter-spacing:0px;word-spacing:0px;opacity:1;fill:#ffffff;fill-opacity:1;stroke:none;stroke-width:1.40427864"
         d="m 392.89461,570.18692 c -2.2585,-2.82139 -4.3582,-5.66266 -6.29908,-8.5238 -1.9056,-2.90088 -3.74062,-5.84149 -5.50508,-8.82184 -3.68644,-6.26898 -6.84734,-12.66329 -10.19292,-18.58558 -0.21174,0 -0.45862,0.0403 -0.81152,0.239 -1.41956,0.55408 -2.49656,1.29151 -3.7753,1.40638 -0.65868,-0.0244 -1.27362,-0.56443 -1.94718,-0.88118 -1.41314,-0.51904 -2.17708,-0.57657 -2.7215,-0.45542 -0.61126,0.29211 0.41914,0.0468 -1.23186,1.01222 -0.59992,0.51659 -0.86358,0.7932 -1.28704,1.34953 -3.1589,4.06087 -5.38852,9.15692 -7.02872,13.57585 -0.56466,1.58952 -0.85804,2.81232 -1.2109,4.28263 -0.0602,0.32955 0.635,-0.1717 1.19952,-1.16516 0.5646,-1.03318 1.4847,-2.78061 2.22576,-3.97275 2.04556,-3.29442 6.52652,-10.1113 9.27212,-9.8998 1.38582,0.27922 1.80812,2.63056 1.65706,3.80358 -1.58508,5.79951 -6.00292,22.7953 -8.97328,32.8355 -0.28768,0.4098 -0.62156,2.06268 -0.98538,3.0932 -0.29738,0.20062 -0.59338,1.83896 -0.81164,2.0911 -0.141,0.1988 -0.35278,0.25832 -0.6352,0.1788 -1.13726,-0.71478 -2.46156,-2.94145 -3.61614,-4.8308 -1.0955,-2.57197 -2.33282,-4.74432 -3.09824,-7.02263 -0.1764,-0.55634 -0.4466,-0.98625 -0.70202,-1.29808 -0.47808,-0.29913 -0.0996,1.5297 0.02,2.32235 0.116,0.48521 0.41492,1.75236 0.60448,2.18112 0.24322,0.56697 0.41964,0.42919 0.3957,1.41579 0.71052,2.51905 1.80152,5.2504 2.66534,7.42491 0.73876,1.57016 1.36442,3.0167 2.09956,4.25246 0.32766,0.34968 0.5012,0.36092 0.50076,0.78014 -0.1082,1.30226 -0.7642,2.61762 -1.0144,3.89994 -0.308,1.59452 0.42168,1.74996 0.70772,1.75324 5.55354,-4.94538 17.91746,-19.83659 27.7067,-29.71207 0.88056,0.78941 1.162,1.45472 1.64114,2.15006 0.1154,0.48723 0.25634,0.80566 -0.26206,1.55663 -3.7275,4.37261 -8.26734,7.57422 -12.62612,10.79837 -0.84746,0.70409 -2.4836,1.47506 -2.08168,1.8956 1.44252,0.292 11.53514,-5.47237 14.5263,-7.4004 0.90228,-0.63312 2.48316,-1.61859 2.54104,-2.02667 0,-0.27815 0.20416,-0.24387 0.3452,-0.16442 0.70162,0.72548 1.07138,1.53142 1.49338,2.3004 0.7048,1.47606 1.21892,3.56249 1.66068,4.57039 0.24708,0.47686 1.06392,2.27336 1.39816,1.33034 0.1924,-2.35556 1.24178,-4.08387 2.83304,-5.95085 0.52934,-0.6358 0.97046,-1.23188 1.32336,-1.78821 z m -22.4687,-19.20527 c 0.70362,1.51474 1.49996,5.70519 1.79992,8.47601 0.1886,1.76689 0.40066,3.24333 0.34726,4.99573 -0.0918,1.07768 -0.4886,0.6415 -0.77532,-0.044 -0.32884,-1.78183 -0.96314,-2.75996 -1.38104,-4.45239 -0.0706,-0.1987 -0.28276,-2.00974 -0.7898,-2.09038 -0.0798,-0.19954 -0.0638,-0.64816 -0.29,-1.17935 -0.20826,-0.58027 -0.50338,-1.25907 -0.8907,-1.81939 -0.30612,-0.56385 -0.67726,-0.74697 -0.78264,-0.25408 -0.0436,0.74928 0.54418,2.05614 0.71062,3.16247 0.4339,2.79828 0.34962,5.10304 0.34622,7.64205 0.029,1.06868 0.004,2.76985 -0.1998,3.7841 -0.44336,1.55916 -1.71572,3.05171 -2.83432,4.71663 -1.64404,2.05433 -4.9437,5.89098 -5.24884,5.77914 -0.22064,-0.024 -0.24412,-0.83503 -0.1836,-1.58357 0.5153,-3.36222 1.20572,-6.55647 1.99968,-9.6209 0.42346,-1.62926 0.88222,-3.27409 1.31722,-4.86361 1.66968,-4.75529 4.29482,-12.30738 7.1744,-17.29043 2.02302,2.26992 5.12134,7.63476 5.74444,10.09034 0.0928,0.80943 -0.27558,2.35919 -0.76858,2.85534 -0.1058,0.15894 -0.2355,0.11546 -0.27136,-0.15408 0.0472,-0.13212 -0.041,-0.39958 -0.17,-0.68424 -0.21174,-0.55633 -0.39954,-0.87697 -0.75242,-1.55252 -0.75634,-1.45319 -1.52112,-3.00798 -2.35796,-4.36312 -0.31714,-0.67555 -0.74076,-1.54329 -1.23538,-1.75278 0.002,-0.18092 -0.1034,-0.001 -0.1886,-0.44341 0.0788,-0.41496 -0.32632,-0.55266 -0.5005,-0.36012 -0.1996,0.26115 -0.07,0.68091 0.1812,1.00655 z"
         sodipodi:nodetypes="ccccccccccccccccccccccccccccccccccccccccccccccccccccccccccccccccccccccccc" />
      <path
         inkscape:connector-curvature="0"
         id="path1238-4-8-6"
         style="font-style:normal;font-variant:normal;font-weight:normal;font-stretch:normal;font-size:10.58333302px;line-height:1.25;font-family:Tribal;-inkscape-font-specification:Tribal;letter-spacing:0px;word-spacing:0px;opacity:1;fill:#ffffff;fill-opacity:1;stroke:none;stroke-width:1.37216175"
         d="m 388.32569,593.1732 c 8.28668,0.31618 18.71716,-4.36128 26.16486,-12.31304 3.73648,-4.04734 6.49246,-8.61147 6.72842,-13.79208 0.1872,-0.50059 0.43056,-0.98331 0.73016,-1.44814 0.33682,-0.46484 0.61766,-0.94755 0.84252,-1.44814 0.71142,-1.57329 0.40962,-3.66558 0.29728,-5.27462 -0.075,-0.32181 -0.131,-0.67938 -0.1682,-1.0727 -0.0374,-0.42908 -0.1124,-0.78664 -0.22452,-1.07269 -0.0376,-0.0715 -0.075,-0.0537 -0.1124,0.0536 -0.0374,0.10728 -0.075,0.23242 -0.1124,0.37543 0,0.14302 -0.018,0.28605 -0.0562,0.42909 v 0.21452 c -0.075,0.21454 -0.131,0.42908 -0.1682,0.64362 0,0.21454 -0.0374,0.42908 -0.1124,0.64362 -0.1872,0.71513 -0.1172,1.31595 -0.4917,1.602 -0.37448,0.28606 -0.83796,0.35641 -1.50736,0.41149 -0.1872,0 -0.28074,-0.0536 -0.28074,-0.16092 0.0702,-0.42776 -0.1372,-0.83854 -0.21264,-1.2002 -0.1496,-0.35756 -0.85874,-1.1172 -1.15844,-1.51053 -0.29968,-0.39332 -0.63668,-0.75088 -1.011,-1.07269 -0.33718,-0.32181 -0.71164,-0.58998 -1.12336,-0.80452 -0.4119,-0.21454 -0.82378,-0.35757 -1.23568,-0.4291 -0.29968,-0.25028 -1.09522,-0.36459 -1.9189,-0.54339 -6.26598,-1.52778 -13.92988,-0.89729 -18.5154,-1.99768 -1.29928,-0.26226 -1.10776,-2.6985 -0.94248,-3.91446 0.73318,-1.43228 3.15516,-3.018 3.40948,-3.86969 -0.4763,-0.10198 -2.76168,1.47444 -3.78898,2.23155 -1.43634,1.04973 -2.2144,2.29717 -2.9208,3.7008 -1.17636,2.11832 -1.8513,0.29082 -1.37212,-1.39099 1.46044,-3.02376 4.01862,-5.05677 6.6521,-6.49332 2.6333,-1.12453 3.79994,-0.82358 5.3027,-0.72451 3.17456,0.50327 6.45612,1.09495 9.32108,3.1372 -0.33316,0.49902 -0.57246,0.49715 -0.95234,1.00155 -1.37554,1.82633 -2.30624,3.73651 -3.35758,5.64435 -0.34112,0.45877 -1.00764,1.83722 0.9144,0.56624 0.6998,-1.30611 2.86684,-4.07744 3.60698,-3.85066 -0.58668,1.18562 -2.38426,2.23581 -2.69604,3.37103 1.31976,-0.36578 2.58166,-0.94246 3.91944,-1.58006 1.06164,-0.37896 2.73332,-1.46068 3.4448,-1.92551 1.64522,-1.48729 2.78044,-4.13469 2.1779,-5.42506 -1.04844,-1.00118 -2.44858,-1.63983 -4.13362,-2.28345 -6.38938,-2.54722 -12.24068,-3.08621 -21.75952,-1.92727 -2.87998,0.37558 -3.66008,0.62554 -5.60692,1.13531 -0.74064,0.1563 -0.6634,0.46519 0.22986,0.39293 3.2797,-0.29741 6.1963,-0.75702 8.5669,0.31302 -0.064,0.45347 -4.30336,2.34215 -9.34994,8.5787 -1.34,1.84785 -2.78584,3.53612 -3.45984,5.60999 -1.0067,2.44803 0.91716,5.64081 2.43476,7.5696 0.0982,0.42398 -0.001,-0.65231 0,-0.75087 -0.20228,-1.66078 -0.40784,-2.92499 0.63968,-4.19483 0.1872,-0.0357 0.63424,-0.26049 0.82152,-0.29627 4.08,0.33324 8.14664,0.66712 11.62062,0.83659 6.2856,0.22025 13.51648,0.74287 13.54984,1.75857 0.5984,0.74999 1.02122,11.81097 -2.73426,16.51065 -0.75618,1.50469 -3.9974,2.35463 -3.45192,2.92973 2.3333,-0.17676 5.5965,-3.51705 6.91142,-5.57984 2.25134,-3.15639 3.1564,-9.07404 3.81482,-10.44995 1.62052,2.68585 1.37868,7.23851 -0.064,9.94969 -3.14928,6.62857 -10.06478,12.22167 -17.01582,14.20003 -3.91244,1.05248 -8.72174,1.74836 -14.23144,-1.55364 -2.54146,-2.46606 4.90516,-16.16602 14.26796,-19.4893 1.27394,-0.5356 1.9434,-0.38673 2.11052,-0.92481 -10.86944,2.30876 -16.17174,6.23042 -21.93728,15.23839 -2.86926,-9.89277 12.52794,-16.70641 15.11854,-17.91552 -4.56516,0.48308 -18.31054,6.46873 -20.179,12.9541 -1.47152,4.03722 0.101,11.84962 1.85632,14.28322 0.61906,-0.42886 -0.0944,-4.25264 0.87678,-3.59748 5.4148,4.66742 5.77382,5.65226 12.0317,5.99132 z"
         sodipodi:nodetypes="ccccccccccccccccccccccccccccccccscccccccccccccccccccccccccccccccccccc" />
    </g>
    <path
       inkscape:connector-curvature="0"
       id="path4050-9-0-3-1"
       style="font-style:normal;font-variant:normal;font-weight:normal;font-stretch:normal;font-size:10.58333302px;line-height:1.25;font-family:Tribal;-inkscape-font-specification:Tribal;letter-spacing:0px;word-spacing:0px;opacity:1;fill:#ffffff;fill-opacity:1;stroke:none;stroke-width:1.97817731"
       d="m 605.48184,-214.86461 c -0.68638,-3.35579 -1.35919,-11.48469 -1.14443,-15.29784 -0.0934,-3.63612 -0.0468,-7.30184 0.14084,-10.99751 0.18656,-3.75526 0.38325,-1.65643 0.94319,-5.11358 0.23508,-8.54874 1.52429,-12.50037 2.50473,-15.54027 0.99793,-2.54387 2.29502,-5.5507 3.30565,-6.77043 0.36914,-0.41992 0.45466,0.1869 0.45241,0.50943 0.29578,0.80082 0.79785,1.74265 1.20481,2.59353 7.1244,14.67254 17.17492,33.74469 25.18918,49.21459 1.72325,2.48176 0.93247,-1.33977 0.74535,-3.27946 -0.28278,-4.00645 -0.32117,-8.01714 0.24749,-11.68932 0.41741,-3.61347 4.80711,-15.74316 5.42912,-17.5768 1.16557,-1.67923 1.76615,-5.62353 2.80332,-6.95545 1.03999,-2.70316 1.43142,-4.40692 2.2716,-6.49313 2.13559,-4.3877 3.2797,-7.09589 3.66154,-7.17238 0.35873,0.0624 1.78197,5.29034 3.30851,9.77603 0.47329,1.0653 0.67564,1.58758 0.7493,2.20509 2.77085,9.71003 3.59945,20.09746 3.65647,28.12979 -0.0466,3.15915 -0.44704,11.31467 -0.74028,14.43839 -0.64741,3.05292 -0.19614,8.36637 1.99109,-3.30099 1.1828,-6.9886 1.66286,-11.7239 1.93633,-15.3397 0.84045,-7.92781 0.98129,-16.30883 0.0688,-23.40708 -0.28024,-3.03998 -0.75803,-5.92531 -1.50508,-8.72678 -1.16726,-4.02126 -1.64393,-7.8432 -2.55325,-11.26572 -0.20802,-0.95673 -0.31216,-2.40212 -0.31216,-3.2962 0.10642,-2.21425 0.24807,-3.58299 0.52747,-5.56797 0.35365,-3.07991 2.01481,-5.36374 3.45922,-5.12609 1.71307,0.44963 3.46456,1.21107 6.41998,4.92498 1.34451,1.59943 1.00047,0.84717 0.73774,-0.53785 -0.16992,-0.62754 -0.34912,-1.28921 -0.49673,-1.84036 -0.47667,-1.7753 -1.09246,-3.95279 -1.97104,-5.37998 -1.68656,-4.2163 -9.04803,-4.12795 -11.20365,-2.99728 -0.913,0.75874 -2.15532,2.14955 -2.62157,2.56511 -1.52201,-1.80541 -3.56841,-3.07613 -6.72338,-4.06337 -0.46537,-0.17121 -1.28016,0.0101 -2.00009,-0.44707 -0.98806,-1.08389 -1.43399,0.0135 -0.94602,0.6281 0.44281,0.74046 2.23491,1.43436 2.4401,1.61049 2.29586,1.66386 4.15374,4.50477 4.23193,6.57376 -0.14846,3.56703 -1.83417,9.52833 -3.58114,14.0026 -1.06706,1.79064 -0.77893,2.18278 -1.39586,3.87101 -1.00529,1.67082 -1.95072,4.89392 -2.51206,6.32732 -2.05317,4.89771 -2.85949,7.3306 -4.90191,12.20706 -0.61074,1.12583 -0.97086,3.52552 -1.4574,3.82709 -0.62625,0.19336 -0.38664,0.52665 -0.55457,1.01719 -0.53594,1.47997 -1.8319,4.18941 -2.61337,5.22954 -0.91101,-0.11898 -5.2293,-7.54065 -8.98202,-13.71322 -0.90226,-2.48211 -3.37482,-6.87435 -4.66484,-10.18283 -0.0855,-0.94859 -0.29324,-0.87638 -0.53481,-1.10845 -1.58723,-3.51676 -2.93285,-7.03447 -4.51585,-10.80098 -0.97055,-1.37109 -0.37563,-1.45441 -0.8018,-2.34066 -1.54289,-2.99352 -3.17103,-6.80262 -3.74988,-9.68767 -0.17836,-0.71003 0.0225,-1.53847 0.36888,-2.05896 1.8206,-3.39415 4.64312,-4.32691 6.14368,-4.58501 1.48505,0.12242 1.41761,-0.79976 0.31131,-0.94142 -1.85844,-0.44355 -4.92337,-0.72805 -7.11767,0.70078 -0.93358,0.58327 -1.51892,1.31664 -2.31081,1.60941 -0.23313,0.11922 -0.91046,0.24966 -1.55337,0.0725 -2.90492,-1.83285 -5.72093,-1.07707 -7.90051,1.35808 -1.99165,2.06555 -3.20887,3.91911 -4.94512,6.00583 -2.63059,3.67482 -1.10829,3.30565 0.83397,1.34813 0.56023,-0.47694 1.80567,-1.64957 2.67351,-1.88796 0.95191,-0.32827 2.91478,0.21629 3.77245,2.36495 0.46681,1.19219 0.99399,2.05163 1.15655,2.43673 0.57941,1.85844 1.24828,4.97176 1.1571,7.13105 -0.37732,3.02877 -1.2872,8.01542 -1.99755,12.123 -0.25966,1.26521 -0.52353,2.4388 -0.78147,3.43228 -0.51337,2.74201 -0.6322,7.22109 -0.95928,10.14177 -0.37396,3.21879 -0.44365,6.61649 -0.20997,10.19284 0.28025,3.57639 0.88926,12.05494 1.54234,15.691 0.47667,2.54876 1.92248,8.45696 2.96248,11.82561 0.67281,2.29608 1.64055,3.85053 1.25815,0.41418 -0.0869,-0.66903 -0.21222,-0.95261 -0.34684,-1.00947 z"
       sodipodi:nodetypes="cccccccccccccccccccccccccccccccccccccccccccccccccccccccccccccccccccccccc" />
    <path
       sodipodi:nodetypes="cccccccccccccccccccccccccccccccccccccccccccccccccccccccccccccccccccccccc"
       d="m 371.16073,105.21202 c -0.22872,-1.11857 -0.45315,-3.8282 -0.38164,-5.09927 -0.0312,-1.212006 -0.0156,-2.433951 0.0468,-3.66583 0.0623,-1.251747 0.1277,-0.552129 0.31442,-1.704531 0.0783,-2.849542 0.5082,-4.166761 0.83499,-5.180081 0.33271,-0.847954 0.76496,-1.850243 1.10186,-2.256817 0.12302,-0.139974 0.1516,0.06231 0.15071,0.169846 0.0986,0.266919 0.26608,0.580857 0.40174,0.864497 2.37482,4.890837 5.72487,11.248207 8.39631,16.404826 0.57454,0.82729 0.31089,-0.44659 0.24849,-1.09311 -0.0942,-1.33553 -0.10718,-2.67241 0.0824,-3.896439 0.13922,-1.204507 1.60249,-5.247737 1.80972,-5.858933 0.38869,-0.559757 0.58875,-1.874524 0.93452,-2.318493 0.34666,-0.901066 0.47697,-1.468978 0.75708,-2.164392 0.71191,-1.462551 1.09346,-2.365284 1.22054,-2.390785 0.1196,0.02082 0.594,1.763455 1.10299,3.258672 0.15767,0.355068 0.22517,0.529206 0.24973,0.735022 0.92354,3.236701 1.19985,6.699171 1.21871,9.376598 -0.0155,1.05305 -0.1489,3.77157 -0.24659,4.81282 -0.21585,1.01762 -0.0655,2.78876 0.66362,-1.10034 0.39429,-2.32952 0.55431,-3.90795 0.64542,-5.113247 0.28011,-2.642579 0.3271,-5.436285 0.0229,-7.802341 -0.0934,-1.01332 -0.25274,-1.97509 -0.50173,-2.908934 -0.38907,-1.340442 -0.54796,-2.614408 -0.851,-3.755243 -0.0694,-0.318915 -0.10414,-0.800698 -0.10414,-1.098733 0.0354,-0.738066 0.0827,-1.194348 0.17589,-1.855991 0.11783,-1.02664 0.67146,-1.7879 1.15295,-1.708693 0.57119,0.149877 1.15487,0.403714 2.14008,1.641664 0.44802,0.533143 0.33348,0.282397 0.24582,-0.179286 -0.0567,-0.20919 -0.11634,-0.429758 -0.16541,-0.613454 -0.15906,-0.591765 -0.36421,-1.317604 -0.65722,-1.793318 -0.56211,-1.405459 -3.01588,-1.376016 -3.73452,-0.999093 -0.30415,0.252895 -0.71839,0.716507 -0.87377,0.855001 -0.5074,-0.601804 -1.18955,-1.025352 -2.24106,-1.354448 -0.15528,-0.05706 -0.42693,0.0035 -0.66686,-0.14903 -0.32923,-0.361295 -0.47805,0.0047 -0.3153,0.209378 0.14756,0.246831 0.74492,0.478101 0.8133,0.536864 0.76543,0.55462 1.3847,1.501584 1.41081,2.191221 -0.0494,1.189016 -0.61152,3.176092 -1.19372,4.66755 -0.3557,0.596855 -0.25974,0.727614 -0.46538,1.290341 -0.33506,0.55693 -0.6502,1.631288 -0.83732,2.109123 -0.6845,1.632535 -0.9531,2.443517 -1.63401,4.068979 -0.20354,0.375301 -0.32358,1.175191 -0.48569,1.275712 -0.20887,0.06446 -0.12888,0.175566 -0.18499,0.339047 -0.17865,0.493349 -0.61059,1.396494 -0.87111,1.743195 -0.30357,-0.03964 -1.74301,-2.513551 -2.99396,-4.571077 -0.30071,-0.827388 -1.1249,-2.291454 -1.55494,-3.394289 -0.0287,-0.31619 -0.0979,-0.292106 -0.17829,-0.369475 -0.52909,-1.172273 -0.97765,-2.34482 -1.50514,-3.600322 -0.3236,-0.457028 -0.12533,-0.484805 -0.26745,-0.780223 -0.5142,-0.997835 -1.05696,-2.267557 -1.24986,-3.22922 -0.0595,-0.236674 0.007,-0.512833 0.1229,-0.686305 0.60692,-1.131418 1.54778,-1.442342 2.04792,-1.528339 0.49507,0.04079 0.4726,-0.266587 0.10378,-0.313834 -0.61947,-0.147831 -1.64114,-0.24265 -2.37246,0.233604 -0.31113,0.194453 -0.50652,0.438876 -0.7704,0.536463 -0.0778,0.03975 -0.30353,0.08324 -0.51779,0.02418 -0.9682,-0.610999 -1.90682,-0.35906 -2.63342,0.452685 -0.66398,0.688484 -1.06972,1.306341 -1.64857,2.001918 -0.87659,1.224972 -0.36923,1.101891 0.27813,0.449396 0.18674,-0.158959 0.60193,-0.549843 0.89123,-0.629312 0.31725,-0.109457 0.97147,0.07209 1.25736,0.788314 0.15562,0.397381 0.33139,0.683878 0.38557,0.812246 0.19323,0.619461 0.4161,1.65725 0.38571,2.377005 -0.12586,1.009594 -0.42907,2.67181 -0.66592,4.040971 -0.0864,0.421768 -0.17445,0.81296 -0.26045,1.144141 -0.17119,0.913976 -0.21084,2.407001 -0.31976,3.380582 -0.12455,1.072927 -0.14785,2.20546 -0.0699,3.397601 0.0934,1.192141 0.29623,4.018326 0.5141,5.230336 0.15879,0.8496 0.64083,2.819 0.9875,3.94187 0.22433,0.76536 0.54668,1.28353 0.41931,0.13806 -0.0292,-0.22301 -0.0707,-0.31754 -0.11554,-0.3365 z"
       style="font-style:normal;font-variant:normal;font-weight:normal;font-stretch:normal;font-size:10.58333302px;line-height:1.25;font-family:Tribal;-inkscape-font-specification:Tribal;letter-spacing:0px;word-spacing:0px;opacity:0.23999999;fill:#ffffff;fill-opacity:1;stroke:none;stroke-width:0.65939242;filter:url(#filter1374-48-5-6-2-0)"
       id="path4052-3-2-2-9"
       inkscape:connector-curvature="0"
       transform="matrix(2.9999998,0,0,2.9999998,-508.00029,-530.50082)" />
    <path
       inkscape:connector-curvature="0"
       id="path4054-8-2-6-7"
       style="font-style:normal;font-variant:normal;font-weight:normal;font-stretch:normal;font-size:10.58333302px;line-height:1.25;font-family:Tribal;-inkscape-font-specification:Tribal;letter-spacing:0px;word-spacing:0px;opacity:1;fill:#ffffff;fill-opacity:1;stroke:none;stroke-width:2.12001467"
       d="m 584.10406,-277.4177 c -0.0694,1.25931 0.66519,0.48162 0.90903,1.2064 -0.16706,1.31995 1.31657,0.7643 0.86699,1.26415 -0.18992,0.25667 0.0872,0.97594 0.80661,1.77549 0.76848,1.21105 2.37685,5.03446 3.64884,7.28583 0.37393,0.97483 1.43057,2.92806 1.76615,4.48154 -0.22831,1.32789 0.8097,1.35186 0.48344,1.95077 -2.13161,2.14749 -5.35461,4.03392 -8.39102,5.47648 -2.50105,1.08831 -4.94821,2.10092 -7.19188,2.79035 -2.1209,0.5421 -3.74282,0.6886 -5.5499,1.20081 -6.28679,0.56727 -13.64882,0.36097 -15.91733,-0.0271 -0.3669,-0.65538 -3.19757,-0.42601 -1.62531,0.68564 6.57124,1.77038 20.71201,2.34624 29.36833,-0.15748 1.9205,-0.85061 3.92345,-0.8754 4.66823,-1.64309 0.68466,-0.25649 3.19362,-0.63773 3.64095,-1.11853 0.27205,-0.2804 0.69427,-0.36097 1.31742,-0.61743 0.54242,-0.14055 0.76649,-0.3424 0.98044,0.83039 0.35277,1.97464 0.4572,4.02964 0.46736,5.84875 -0.11544,2.80736 -0.15185,5.39208 -0.76597,8.17544 -0.64995,0.55605 -0.5605,1.43719 -0.63416,2.14233 -0.31157,1.23127 -0.99848,2.40591 -1.31005,3.07293 -1.31911,2.09645 -3.13156,4.03256 -4.77325,5.74505 -3.52239,-0.0151 -6.98584,-0.0302 -10.61042,-0.3974 -2.05682,-0.40092 -5.13758,-0.76877 -7.96375,-1.6501 -0.3175,-0.7374 -1.88299,-0.42296 -3.66945,-1.5875 -1.74469,-1.17285 -3.27152,-2.44896 -4.45572,-3.72795 -0.55597,-0.68721 -1.53614,-1.67945 -2.23858,-2.91963 0.1394,-0.70617 -0.23424,-0.67942 -0.47104,-0.70461 -0.34825,-0.24691 -0.42135,-1.06781 -0.4699,-1.46034 -0.031,-1.91114 -2.63255,-1.03915 -1.22907,-0.0697 0.23566,0.47911 0.39624,0.86606 0.32456,1.30189 0.42191,1.57191 1.57507,4.06053 2.63314,5.38673 1.43451,2.0987 5.54508,5.29114 7.97475,6.31727 0.93075,0.55494 1.85081,0.9393 3.07028,1.25981 1.6637,0.24805 1.39276,0.552 1.97527,0.58717 1.65608,0.80721 5.23637,1.43959 5.09778,2.0243 -2.46406,1.0315 -4.84349,1.57871 -7.07644,1.83578 -3.50266,-0.42661 -7.14163,-2.05846 -8.48331,-2.30759 -2.60913,-1.07741 -4.37472,-2.23046 -6.67991,-3.84902 -3.01611,-2.40597 -6.18773,-6.2502 -6.71181,-8.51731 -0.44366,-4.8015 -0.0988,-14.00022 0.2413,-15.51676 0.39116,-0.88431 0.87092,-1.29593 2.043,-1.8016 7.52293,-0.54432 18.69131,-0.31908 23.15239,-2.44549 2.8112,-0.69868 5.93625,-1.77977 8.49038,-2.95987 1.98628,-0.8246 3.76653,-1.5045 5.53492,-3.04892 2.20218,-1.49482 0.45016,-1.49995 -1.08484,-0.53258 -1.17179,0.3479 -0.98611,1.04973 -1.66624,1.14938 -0.77132,-0.0512 -3.8879,1.48404 -4.85593,1.78823 -1.07979,-0.0735 -1.32813,0.39815 -1.95072,0.70591 -3.88196,0.85892 -10.30279,1.074 -12.91928,1.17653 -3.87999,0.0921 -14.1763,0.12856 -15.9656,-1.83484 -1.24431,-1.50974 -1.90301,-4.43481 -1.98488,-5.77617 0.18656,-1.48788 0.98582,-4.58988 1.54686,-5.97514 0.87122,-0.46392 0.69258,-0.84105 0.81196,-1.30873 1.28045,-1.9363 4.00473,-5.19353 5.1263,-6.47618 5.40962,-5.07492 4.63576,-6.37019 -1.20819,-1.07749 -3.86588,2.7259 -7.50486,6.52645 -9.33141,9.92865 -1.08598,0.977 -2.03792,4.13753 -2.96079,6.18604 -0.28871,2.19728 -0.12785,4.58094 -0.46681,6.6953 -0.94683,1.73384 -5.67999,2.22483 -7.7721,0.57423 -1.54573,-1.52969 -3.73634,-1.87389 -1.64055,-0.0148 0.48146,0.67064 1.03349,1.422 1.69164,1.89963 1.88552,1.55821 5.1957,3.63662 6.44398,3.67856 0.9045,0.40248 0.4428,2.65411 0.39057,3.81354 -0.24892,0 -0.82661,-0.12584 -1.44975,-0.0228 -0.56079,0.0514 -1.12184,0.10265 -1.68177,0.15398 -0.62315,0.0513 -1.18364,0.0769 -1.68204,0.0769 -0.56049,0 -0.93446,-0.0512 -1.12128,-0.15385 -0.7479,-0.25651 -2.28375,-0.97983 -2.9069,-1.39028 -2.11836,-0.97517 -3.57658,-3.39759 -2.28401,-0.0228 0.37282,0.40277 0.89548,0.91074 1.58496,1.53177 1.97951,1.52919 3.58677,3.43078 6.0802,4.43315 1.9702,1.12083 1.74329,-0.12269 3.4925,1.38639 0.29549,0.68601 -0.15184,1.87939 2.17112,5.20875 0.95504,1.5477 3.27914,4.309 5.76892,6.89639 1.28241,1.19769 3.18826,2.8316 4.30615,4.09101 2.37686,2.01383 5.29701,3.6707 8.58152,5.22137 1.386,0.30255 -0.5334,0.65847 5.40314,2.48409 1.4986,0.0793 1.11987,0.57849 1.53728,0.57597 1.69333,0.61339 4.6242,0.72428 5.64867,1.24667 2.3464,0.7493 6.82752,1.50415 10.32679,2.1223 2.5259,0.48956 4.72326,0.95687 6.95058,1.20962 2.89362,0.32827 5.78554,0.38066 8.98509,0.53528 2.90999,-0.054 2.94386,-0.47265 -0.33216,-1.03799 -3.93898,-0.661 -7.00251,-1.06542 -9.79313,-1.92214 -0.92286,-0.35676 -3.59211,-1.24158 -4.77575,-1.65195 -0.94009,-0.37815 -4.2449,-1.85328 -2.48243,-2.23901 0.84638,-0.32864 1.91318,-0.35068 2.89928,-0.59405 1.55813,-0.0954 3.48036,-1.07079 4.30784,-1.1176 1.25164,-0.16869 2.37516,-0.49307 3.36973,-1.11302 2.37517,-1.01878 4.8799,-2.30068 7.63778,-4.32697 2.5036,-1.4515 3.77614,-3.42744 4.33888,-5.10786 0.30311,-2.38503 0.78372,-5.2673 0.79811,-10.10221 0.51451,-10.43491 -0.39396,-14.13304 -4.11056,-21.73478 -0.41712,-0.31465 -0.98184,-1.67167 -1.10686,-2.40761 -0.0421,-0.24839 0.0466,-0.67209 -0.60849,-0.61023 -0.40272,-0.16214 -0.23056,-0.6001 -0.57743,-0.9312 -3.35618,-6.19443 -7.76224,-10.49491 -9.56844,-12.5471 -8.23637,-8.26566 -16.65507,-14.27035 -25.05824,-19.07722 -2.88176,-1.62907 -2.26597,-0.24257 1.0174,2.028 5.44352,4.1429 15.54311,13.07783 18.88604,18.19222 z"
       sodipodi:nodetypes="ccccccccccccccccccccccccccccccccccccccccccccccccccccccccccccccccccsccccccccccccccccccccccccccccccccccc" />
    <path
       sodipodi:nodetypes="ccccccccccccccccccccccccccccccccccccccccccccccccccccccccccccccccccsccccccccccccccccccccccccccccccccccc"
       d="m 364.03467,84.361032 c -0.0231,0.419755 0.22186,0.160548 0.30315,0.402101 -0.0557,0.439999 0.43876,0.254788 0.28905,0.421392 -0.0634,0.08554 0.0291,0.325329 0.2687,0.591827 0.25615,0.403671 0.79244,1.678155 1.21631,2.428637 0.12461,0.324935 0.47674,0.976001 0.58868,1.49383 -0.076,0.442657 0.27001,0.450605 0.16114,0.650255 -0.7105,0.715837 -1.7847,1.344648 -2.79695,1.825491 -0.83359,0.362779 -1.64941,0.700301 -2.39731,0.930103 -0.70684,0.180734 -1.24761,0.22956 -1.84996,0.400294 -2.09566,0.189088 -4.54959,0.120325 -5.30577,-0.009 -0.12239,-0.218461 -1.06587,-0.142017 -0.54165,0.228506 2.19031,0.590145 6.90391,0.7821 9.78938,-0.05249 0.6402,-0.283498 1.30775,-0.29177 1.55598,-0.547654 0.22842,-0.08551 1.06452,-0.212585 1.2137,-0.37286 0.0907,-0.09346 0.23154,-0.120303 0.43921,-0.205817 0.18071,-0.04687 0.25547,-0.114125 0.32678,0.276807 0.1175,0.658191 0.15233,1.343209 0.1558,1.9496 -0.0386,0.935753 -0.0506,1.797351 -0.25542,2.725152 -0.21662,0.185329 -0.18681,0.479038 -0.21123,0.714083 -0.1038,0.410442 -0.33291,0.801995 -0.43676,1.024319 -0.43974,0.698813 -1.04397,1.344192 -1.59094,1.914992 -1.17424,-0.005 -2.32875,-0.01 -3.53689,-0.13244 -0.68565,-0.13364 -1.7127,-0.25626 -2.65468,-0.55004 -0.10581,-0.24579 -0.62765,-0.14098 -1.22309,-0.529158 -0.58167,-0.390955 -1.09064,-0.816313 -1.48516,-1.242665 -0.18542,-0.229066 -0.51215,-0.559838 -0.74632,-0.973207 0.0466,-0.235395 -0.0781,-0.226497 -0.15699,-0.23485 -0.11606,-0.08232 -0.14042,-0.35595 -0.1566,-0.486796 -0.0101,-0.637064 -0.87752,-0.34638 -0.4098,-0.02324 0.0786,0.159712 0.13212,0.288696 0.10828,0.433951 0.14074,0.523982 0.525,1.353526 0.87775,1.795584 0.47798,0.699576 1.84831,1.763721 2.65814,2.105761 0.31041,0.18497 0.61697,0.31309 1.0236,0.41993 0.55445,0.0827 0.46418,0.18401 0.65837,0.19573 0.55205,0.26907 1.74538,0.47988 1.69921,0.67474 -0.8214,0.34387 -1.61454,0.52627 -2.35875,0.61197 -1.16774,-0.14222 -2.38064,-0.68617 -2.82785,-0.76922 -0.86966,-0.35913 -1.45831,-0.74349 -2.2266,-1.28299 -1.00526,-0.802 -2.06268,-2.083422 -2.23727,-2.839109 -0.14803,-1.600519 -0.0329,-4.66675 0.0805,-5.172261 0.13025,-0.294788 0.29028,-0.431965 0.68089,-0.600518 2.50766,-0.181445 6.23044,-0.106397 7.71747,-0.815169 0.93691,-0.232902 1.97869,-0.59327 2.83006,-0.986611 0.66221,-0.274875 1.25569,-0.501508 1.84513,-1.016325 0.73393,-0.498258 0.14994,-0.49998 -0.36172,-0.177536 -0.39058,0.115962 -0.32867,0.349902 -0.55539,0.383121 -0.25715,-0.01707 -1.29594,0.494704 -1.61861,0.596098 -0.35986,-0.02449 -0.44271,0.132685 -0.65014,0.235295 -1.29412,0.286314 -3.43439,0.357979 -4.30653,0.392172 -1.29345,0.03071 -4.72547,0.04283 -5.32194,-0.611607 -0.4148,-0.503247 -0.63433,-1.478264 -0.66154,-1.925397 0.0623,-0.495952 0.3286,-1.529954 0.51551,-1.991701 0.29033,-0.154641 0.23098,-0.280369 0.27079,-0.436241 0.42674,-0.645446 1.33491,-1.731187 1.70867,-2.158729 1.80313,-1.691642 1.54535,-2.123398 -0.40274,-0.359161 -1.28855,0.908618 -2.50154,2.175475 -3.11046,3.30955 -0.36197,0.325658 -0.67916,1.379153 -0.98701,2.061991 -0.0961,0.732455 -0.0424,1.527004 -0.15559,2.231778 -0.31552,0.577965 -1.89327,0.741621 -2.59057,0.191384 -0.51533,-0.509854 -1.24558,-0.624624 -0.54684,-0.005 0.16039,0.223554 0.34442,0.473993 0.56389,0.6332 0.62844,0.519415 1.732,1.212212 2.14801,1.226192 0.30154,0.134175 0.14748,0.884711 0.13012,1.271182 -0.083,0 -0.27559,-0.04196 -0.48329,-0.0077 -0.18699,0.0171 -0.37388,0.0342 -0.56065,0.05131 -0.20767,0.0171 -0.39455,0.02565 -0.56066,0.02565 -0.18679,0 -0.31138,-0.0171 -0.37377,-0.05131 -0.24918,-0.08551 -0.76109,-0.326606 -0.96875,-0.463416 -0.70621,-0.325049 -1.19231,-1.132521 -0.76136,-0.0077 0.12408,0.134287 0.29832,0.303595 0.52826,0.510604 0.6598,0.509714 1.19556,1.143547 2.02673,1.477707 0.6567,0.373624 0.58104,-0.0409 1.16408,0.462124 0.0985,0.228671 -0.0506,0.626474 0.72377,1.73626 0.31823,0.515888 1.093,1.436333 1.92293,2.298783 0.42741,0.39923 1.06276,0.94389 1.43542,1.36367 0.79215,0.67127 1.76567,1.22359 2.86041,1.74047 0.46201,0.10083 -0.17772,0.2195 1.80114,0.82804 0.49949,0.0264 0.37331,0.19282 0.51235,0.19198 0.56445,0.20445 1.54141,0.24142 1.88288,0.41556 0.78225,0.24976 2.27586,0.5014 3.4423,0.70742 0.84201,0.16321 1.57443,0.31897 2.31694,0.40322 0.9644,0.10942 1.92859,0.12686 2.99485,0.17844 0.97021,-0.018 0.98141,-0.15758 -0.11059,-0.34602 -1.31303,-0.22034 -2.33415,-0.35514 -3.26426,-0.64072 -0.30764,-0.11892 -1.19745,-0.41383 -1.59199,-0.55064 -0.31342,-0.12604 -1.41506,-0.61776 -0.82753,-0.74632 0.28228,-0.10958 0.63771,-0.11691 0.96645,-0.19804 0.51937,-0.0318 1.16,-0.35693 1.43589,-0.37255 0.41733,-0.0562 0.79175,-0.16435 1.12331,-0.371 0.79174,-0.33958 1.62649,-0.76689 2.54587,-1.44231 0.83462,-0.48384 1.25867,-1.14247 1.44636,-1.70263 0.10096,-0.794983 0.2613,-1.755763 0.26606,-3.367408 0.17148,-3.478271 -0.13144,-4.710995 -1.3702,-7.244921 -0.13906,-0.10487 -0.32736,-0.557205 -0.369,-0.802513 -0.0133,-0.08281 0.0154,-0.22403 -0.20284,-0.20343 -0.13422,-0.05402 -0.0769,-0.200006 -0.1924,-0.310376 -1.11868,-2.064814 -2.58741,-3.498314 -3.18959,-4.182383 -2.74537,-2.755239 -5.55173,-4.756794 -8.35272,-6.359092 -0.96054,-0.542988 -0.75518,-0.08084 0.33928,0.676024 1.81428,1.380952 5.18105,4.359263 6.29514,6.064042 z"
       style="font-style:normal;font-variant:normal;font-weight:normal;font-stretch:normal;font-size:10.58333302px;line-height:1.25;font-family:Tribal;-inkscape-font-specification:Tribal;letter-spacing:0px;word-spacing:0px;opacity:0.23999999;fill:#ffffff;fill-opacity:1;stroke:none;stroke-width:0.70667148;filter:url(#filter1346-1-2-8-6-1)"
       id="path4056-2-7-1-8"
       inkscape:connector-curvature="0"
       transform="matrix(2.9999998,0,0,2.9999998,-508.00029,-530.50082)" />
    <path
       inkscape:connector-curvature="0"
       id="path4058-0-5-4-8"
       style="font-style:normal;font-variant:normal;font-weight:normal;font-stretch:normal;font-size:10.58333302px;line-height:1.25;font-family:Tribal;-inkscape-font-specification:Tribal;letter-spacing:0px;word-spacing:0px;opacity:1;fill:#ffffff;fill-opacity:1;stroke:none;stroke-width:2.10641789"
       d="m 460.41821,-289.93606 c 0.44958,-0.16452 0.83029,-0.54671 1.24825,-0.80153 6.37116,-3.88353 11.46162,-4.9979 18.415,-5.27023 4.97954,-0.30861 8.57533,0.0443 9.11974,-0.71906 0.37451,-0.14272 -0.25371,-1.09098 -0.61214,-1.04415 -0.57883,-0.28477 -3.28901,-0.32359 -3.39458,-0.20439 -7.39958,0.1406 -13.11995,0.48479 -19.16711,1.47036 -1.26097,0.19611 -2.67406,0.54386 -3.85376,0.96692 -3.0906,1.21161 -6.39683,2.15138 -10.42979,4.54237 -1.36539,1.08911 -4.09618,2.64142 -4.54745,3.13693 -3.22863,3.20169 3.79815,17.26366 8.42801,23.85816 0.45577,0.64903 0.96491,1.24992 1.16417,1.80983 -0.0169,0.47662 0.52324,0.91411 0.94882,1.33771 1.85618,4.25471 4.66061,5.34485 11.23048,12.20489 1.2206,1.10675 2.11722,2.07737 2.51375,2.78656 0.34854,2.07492 -8.80478,5.90063 -12.93961,6.0561 -2.46718,0.32729 -3.49588,1.71887 -3.07001,1.76813 0.29943,0.31671 1.27365,0.46564 2.25975,0.0963 0.3683,-0.11525 1.00047,-0.39328 1.78478,-0.45807 1.60554,-0.2816 6.10756,-0.72747 7.83108,-0.92422 0.99737,-0.14351 4.07445,-0.60491 4.57314,-0.82018 0.43913,-0.18508 1.45994,-1.00737 1.65185,-0.35973 0.51167,1.23198 0.42079,6.29187 0.33189,9.52947 0,0.84051 -0.0855,2.08577 -0.27996,3.52973 -0.46849,0.88667 -0.85233,4.64164 -1.30669,5.87179 -1.41931,2.10442 -4.84603,1.82989 -8.19883,2.85203 -5.13279,2.05621 -6.72735,3.36317 -10.57545,5.70357 -2.95429,2.31386 -1.9349,2.10777 -0.42418,1.85576 0.8876,-0.0813 1.52344,-0.3506 1.88526,-0.56026 0.3711,-0.1797 -0.12729,-0.60179 1.80396,-0.72051 0.38213,-0.10353 0.27715,-0.34023 0.41431,-0.39521 5.49682,-2.54127 15.23068,-1.57229 19.32064,-1.08011 2.47256,0.44479 4.35242,2.39911 10.0934,1.22275 7.15997,-1.82835 6.41999,-3.1822 8.80505,-3.76087 7.34229,-6.85086 2.8335,-3.68993 -0.84807,-2.64475 -3.22496,0.4159 -4.52827,0.62831 -7.7995,0.59653 -2.47311,-1.18911 -3.46371,-3.10398 -3.4798,-6.85535 -0.0522,-0.47686 -0.10641,-1.28156 -0.15917,-2.41403 -0.2128,-4.36214 0.0387,-8.12012 0.33753,-12.52088 0.38891,-1.65436 1.08826,-4.23415 1.99136,-5.2587 0.70752,-0.0919 0.59126,-0.58182 0.64317,-0.90236 0.33219,-0.59772 0.6113,-1.09474 1.15629,-1.70373 3.00339,-3.2438 5.67859,-6.57897 8.7771,-9.89555 0.33697,-0.40265 0.80065,-0.8414 0.75861,-1.28918 0.89832,-0.99042 2.43472,-2.64661 2.45055,-3.12714 1.78334,-2.32961 3.65307,-4.3321 4.85563,-6.07031 0.11853,-0.34504 0.58531,-1.45587 1.73847,-2.13051 1.60359,-2.34828 2.14321,-3.2399 2.72995,-4.13411 1.3939,-1.31281 3.41545,-4.42979 4.32956,-5.98035 0.30678,-0.48506 0.22098,-0.73234 0.392,-0.9743 0.37931,-0.49485 1.04987,-1.0037 1.44386,-1.51268 0.25175,-0.28868 0.30451,-0.59224 0.46935,-0.92789 1.0555,-1.76218 4.66116,-4.30755 3.24469,-5.12921 -1.15004,-0.36584 -5.78131,0.63478 -8.47768,1.53349 -0.44844,0.15754 -0.47667,0.49149 -1.29256,0.57087 -1.83783,-0.1007 -3.51338,-0.51742 -3.65223,-3.42117 0.21984,-1.56633 0.26133,-2.32307 1.06706,-3.72639 0.54695,-0.95763 1.34959,-2.12556 2.00774,-2.57858 0.67733,-0.0227 1.46756,-1.02737 1.57903,-1.41724 0.4445,-1.07063 -2.74688,-0.0717 -2.60011,0.70969 -0.5729,0.54007 -0.55317,-0.35702 -3.36804,1.93564 -0.63669,0.51311 -1.23389,1.04056 -2.00123,1.9912 -0.32824,0.10883 -1.905,5.34295 -2.08169,8.06054 -0.0539,0.58724 0.0751,1.07307 -0.76115,1.54323 -5.74434,2.52042 -11.92641,5.25502 -16.73633,8.06974 -2.54508,1.46026 -3.57999,1.97847 -5.28632,2.74497 -0.57883,0.23546 -0.99568,0.47554 -1.03632,0.77055 -0.17552,0.34822 -0.41373,0.40037 -0.8029,0.39468 -1.64592,0.75824 -2.43332,2.11132 -0.84836,1.8161 0.36179,-0.0763 0.91186,-0.16955 1.82626,-0.62582 1.30497,-0.60214 3.58055,-1.64754 5.13529,-2.07119 1.07781,-0.0479 1.67614,-0.51691 2.85893,-0.9938 1.32334,-0.53644 5.12683,-1.81649 5.49741,-1.93572 0.41402,-0.0984 0.60875,-0.34287 1.34337,-0.5126 1.9527,-0.44654 3.42447,-0.63532 4.65074,-0.78301 0.60084,0.0122 1.13707,-0.38438 1.64732,-0.50048 1.2545,-0.17209 4.83701,-0.4263 4.96036,0.018 -0.0311,1.1 -0.54187,1.95548 -0.90652,2.33447 -0.30168,0.36012 -0.52041,-0.0938 -0.70329,1.00415 -0.74223,1.364 -1.61853,1.54003 -1.80848,2.3832 -4.36287,6.45626 -7.80486,10.43001 -12.73357,16.22603 -1.29569,1.5926 -2.04952,1.63883 -3.68978,1.81716 -1.76953,0.0812 -3.32655,-0.28594 -5.78471,-1.42714 -1.11985,-0.53216 -2.4765,-1.48153 -4.00249,-2.83864 -2.11751,-1.78866 -4.19862,-3.58738 -6.15497,-5.35903 -4.46249,-4.21087 -7.4947,-9.86125 -9.78972,-14.65643 -0.98975,-1.84581 -2.11471,-4.01106 -2.52222,-4.99647 -0.15155,-0.85257 0.0748,-1.68471 1.63491,-3.05864 1.43227,-1.50574 3.38863,-2.92846 4.14923,-3.41873 0.23622,-0.14277 0.41656,-0.16627 0.62767,-0.20908 z"
       sodipodi:nodetypes="cccccccccccccccccccccccccccccccccccccccccccccccccccccccccccccccccccccccccccccccccccccccccc" />
    <path
       inkscape:connector-curvature="0"
       id="path4060-3-0-8-9"
       style="font-style:normal;font-variant:normal;font-weight:normal;font-stretch:normal;font-size:10.58333302px;line-height:1.25;font-family:Tribal;-inkscape-font-specification:Tribal;letter-spacing:0px;word-spacing:0px;opacity:1;fill:#ffffff;fill-opacity:1;stroke:none;stroke-width:2.01989412"
       d="m 528.149,-295.11618 c -1.75289,0.58833 -3.72338,2.45965 -4.35216,3.20458 -2.51968,3.60424 -4.28752,7.76036 -6.82752,11.10044 -1.08175,1.55265 -2.07433,2.60932 -3.33108,3.84318 -1.12268,0.98935 -3.84471,1.98413 -5.04724,2.41718 -5.17596,0.15377 -6.43805,-0.74885 -7.10721,-0.80063 -2.13474,0.31972 0.18034,2.01771 5.00832,4.5544 1.1066,0.84646 3.78291,0.96282 6.27322,0.58846 0.92231,-0.98933 1.4351,-0.4014 2.14207,-0.82301 0.55994,-0.17275 2.28938,-1.72747 3.94774,-2.04195 1.04958,-0.0805 0.60254,6.27716 0.74478,9.30952 0.042,4.6119 0.042,11.83416 -0.17725,12.84484 -0.61523,1.37252 -1.94141,0.54292 -2.84903,1.17239 -0.79444,0.0959 -0.89604,0.65598 -1.07159,0.79857 -0.36378,0.16737 -1.25701,0.38304 -1.61658,0.78872 -3.97679,2.74381 -2.39014,3.58815 0.36888,1.76771 2.2352,-0.67183 3.6212,-0.58029 4.57989,0.89448 0.62203,2.69404 0.56049,12.22033 0.26246,19.18686 -0.035,1.91149 -0.1394,4.23016 -1.8779,5.82195 -1.72776,1.80607 -2.23182,2.44414 -4.06342,2.72936 -2.07941,0.53314 -1.09532,0.9261 -6.08274,0.966 -1.52456,-0.37389 -2.27809,-1.19854 -3.11997,-1.83478 -1.62108,-1.51562 -2.14799,-1.02886 -0.18203,1.67544 2.12682,4.22823 5.87388,4.20116 8.4071,4.77335 2.70849,0.58838 6.73778,-0.89289 9.50045,-2.00581 0.72787,-0.27895 -0.30649,-0.50752 1.0781,-0.86275 0.90479,-0.19314 1.5621,-0.4645 2.50245,-0.67268 0.31018,-0.34454 0.90115,-0.42076 1.52459,-0.40565 5.98395,-0.19683 17.78619,-0.47922 25.77901,0.21267 0.73859,0.20396 1.0191,2.40099 0.35446,4.14067 -0.80348,0.75195 0.24046,0.72126 0.75751,0.75833 2.70594,-0.10314 3.86164,-0.16764 4.56633,-1.78353 1.45627,-1.84156 1.48675,-4.58788 1.3688,-7.70758 0.13912,-1.51289 1.17036,-2.79053 1.32022,-3.67639 1.68968,-2.51642 2.43898,-6.11941 3.27575,-9.17884 1.79184,-7.85146 1.66061,-11.07612 1.67444,-13.39887 -0.0421,-2.66777 -0.4033,-2.7758 -1.65213,0.86272 -0.81564,2.24108 -0.8509,4.15034 -1.91461,6.75561 -0.55258,0.0529 -0.60055,0.8223 -0.53197,1.24463 -0.55316,1.13114 -0.73266,2.26232 -1.42523,3.32253 -2.75392,5.06844 -4.44275,6.50412 -5.63795,7.53597 -1.39925,1.29238 -2.37829,2.10603 -3.25515,3.07869 -1.28582,0.72456 -1.89145,1.18835 -4.29741,1.46211 -6.83231,0.17217 -14.03435,0.64413 -17.3132,-0.92077 -2.97264,-1.77181 -3.49956,-3.10396 -3.94885,-5.33398 -0.37084,-5.00486 -0.4431,-10.82886 -0.60338,-15.75673 2.00406,-0.77652 2.71581,-1.1544 3.73605,-1.98628 0.88362,-0.83703 1.10857,-0.83121 1.52429,-1.6124 0.4682,-1.26232 1.22229,-2.53211 1.48166,-3.31337 0.67252,-2.66129 0.77555,-2.97612 -0.9494,-0.93054 -1.21806,1.51786 -1.71281,2.05994 -2.36897,2.22099 -0.68411,0.28284 -3.07227,0.62553 -3.14085,-0.31705 0.11118,-4.43225 0.42699,-10.72803 0.47498,-14.52369 0.1033,-3.29248 0.38524,-6.3798 0.48853,-9.61639 0.38126,-4.49739 0.47215,-8.48117 1.18475,-12.69749 1.17576,-3.17526 2.41753,-4.8591 4.54435,-6.58095 3.97455,-2.49939 -1.65552,-1.90352 -4.12636,-1.25011 z"
       sodipodi:nodetypes="cccccccccccccccccccccccccccccccccccccccccccccccccccccccccc" />
    <path
       sodipodi:nodetypes="cccccccccccccccccccccccccccccccccccccccccccccccccccccccccccccccccccccccccccccccccccccccccc"
       d="m 322.80619,80.188261 c 0.1498,-0.05487 0.27675,-0.182264 0.41613,-0.26722 2.12365,-1.294487 3.8205,-1.665981 6.13828,-1.756747 1.6598,-0.102844 2.85855,0.01476 3.03978,-0.23968 0.12495,-0.04754 -0.0845,-0.363665 -0.2038,-0.348044 -0.19306,-0.09491 -1.09647,-0.107874 -1.13167,-0.06813 -2.46651,0.04687 -4.37326,0.161588 -6.38898,0.490126 -0.42041,0.06535 -0.89137,0.181279 -1.28453,0.3223 -1.03036,0.403885 -2.1324,0.717111 -3.47671,1.514145 -0.45514,0.363035 -1.36548,0.880422 -1.51592,1.045634 -1.07624,1.067226 1.26616,5.754546 2.80949,7.952714 0.1519,0.216359 0.32153,0.416632 0.388,0.603282 -0.005,0.15886 0.17442,0.304681 0.31616,0.445901 0.61893,1.418244 1.55372,1.781595 3.74364,4.0683 0.40688,0.368899 0.70563,0.692431 0.83782,0.928837 0.11626,0.691641 -2.93491,1.966859 -4.3132,2.018697 -0.82231,0.10911 -1.1653,0.572964 -1.02326,0.58939 0.0997,0.105547 0.42462,0.155219 0.75325,0.0321 0.12278,-0.03841 0.33356,-0.131069 0.59495,-0.152677 0.53504,-0.09388 2.03577,-0.242514 2.61044,-0.308068 0.33243,-0.04783 1.35796,-0.201641 1.52427,-0.273388 0.14641,-0.06172 0.4866,-0.335806 0.5506,-0.119942 0.17055,0.41068 0.14021,2.097311 0.11069,3.176493 0,0.280186 -0.0286,0.695276 -0.0934,1.176596 -0.1562,0.29554 -0.28419,1.54722 -0.43564,1.95726 -0.4731,0.70148 -1.6153,0.60997 -2.7329,0.95066 -1.71082,0.68539 -2.24233,1.12109 -3.52508,1.90118 -0.98479,0.7713 -0.64489,0.70262 -0.14138,0.61861 0.29579,-0.0271 0.50778,-0.11685 0.62836,-0.18675 0.12383,-0.0599 -0.0424,-0.20058 0.60142,-0.24016 0.12728,-0.0345 0.0924,-0.11342 0.13808,-0.13174 1.83229,-0.84709 5.07693,-0.52411 6.4401,-0.36003 0.82422,0.14825 1.45076,0.7997 3.36449,0.40757 2.38667,-0.60944 2.14004,-1.06072 2.93508,-1.2536 2.44741,-2.28364 0.9446,-1.23002 -0.28277,-0.88161 -1.07483,0.13866 -1.50928,0.20944 -2.59969,0.19886 -0.82444,-0.3964 -1.15471,-1.03467 -1.15999,-2.28513 -0.0177,-0.15896 -0.0353,-0.42719 -0.053,-0.8047 -0.0711,-1.454014 0.0119,-2.706676 0.11236,-4.173587 0.1298,-0.551482 0.36289,-1.411399 0.66382,-1.752925 0.23599,-0.03067 0.1972,-0.193924 0.21446,-0.300778 0.11067,-0.199238 0.20371,-0.364917 0.38541,-0.567911 1.00118,-1.081262 1.89284,-2.193007 2.92565,-3.298517 0.11232,-0.134227 0.26704,-0.28049 0.25287,-0.429742 0.29945,-0.330117 0.81169,-0.882201 0.81694,-1.04237 0.59439,-0.776536 1.2176,-1.444047 1.6185,-2.023429 0.0396,-0.115008 0.19496,-0.485285 0.57959,-0.710166 0.53455,-0.782771 0.71428,-1.079956 0.90978,-1.378022 0.46477,-0.437628 1.13856,-1.47661 1.44342,-1.993463 0.10222,-0.16169 0.0736,-0.244138 0.13055,-0.324794 0.12654,-0.164923 0.34984,-0.334541 0.48118,-0.504212 0.084,-0.0962 0.10162,-0.197392 0.15651,-0.309284 0.3519,-0.587393 1.55381,-1.435853 1.08167,-1.709768 -0.38336,-0.121945 -1.92724,0.211617 -2.82587,0.511191 -0.14958,0.05252 -0.15897,0.163825 -0.43095,0.190274 -0.61266,-0.03356 -1.17109,-0.172447 -1.21739,-1.14037 0.0732,-0.522112 0.0871,-0.774385 0.35579,-1.24215 0.18218,-0.319218 0.44975,-0.7085 0.66905,-0.859541 0.22587,-0.0076 0.48926,-0.342434 0.52634,-0.472373 0.14821,-0.356879 -0.91552,-0.02392 -0.86671,0.236532 -0.19083,0.180043 -0.18417,-0.11899 -1.12261,0.645235 -0.21228,0.171042 -0.41134,0.346827 -0.667,0.663715 -0.10948,0.0363 -0.63502,1.780996 -0.69398,2.686854 -0.0181,0.195761 0.025,0.357698 -0.25361,0.514431 -1.91492,0.840129 -3.97548,1.75166 -5.57887,2.68991 -0.84831,0.486739 -1.19339,0.659464 -1.762,0.914986 -0.19313,0.07847 -0.332,0.158517 -0.34559,0.256844 -0.0585,0.116054 -0.13794,0.133461 -0.2676,0.131563 -0.54855,0.252764 -0.81114,0.703765 -0.2828,0.605375 0.12071,-0.02546 0.30399,-0.05653 0.60871,-0.208616 0.43506,-0.200719 1.19356,-0.549178 1.71172,-0.690408 0.35947,-0.01595 0.55883,-0.172311 0.95307,-0.331262 0.44111,-0.178821 1.70897,-0.605484 1.83249,-0.645223 0.13804,-0.03278 0.20293,-0.114293 0.44777,-0.170861 0.65087,-0.148886 1.1416,-0.211788 1.55025,-0.261019 0.20025,0.0041 0.37916,-0.128128 0.54923,-0.166854 0.41813,-0.05736 1.6122,-0.142079 1.65331,0.0061 -0.0102,0.366665 -0.18061,0.6518 -0.30211,0.778136 -0.1005,0.120042 -0.17349,-0.03127 -0.23434,0.334732 -0.24748,0.45467 -0.53957,0.513346 -0.60299,0.794408 -1.45435,2.15208 -2.60157,3.476666 -4.24454,5.408646 -0.43183,0.530884 -0.68308,0.546267 -1.22983,0.605744 -0.5899,0.02707 -1.1088,-0.09531 -1.92836,-0.475716 -0.37326,-0.177387 -0.82532,-0.493838 -1.33394,-0.946199 -0.70593,-0.596216 -1.39979,-1.195801 -2.05171,-1.78634 -1.4875,-1.403626 -2.49835,-3.287133 -3.26324,-4.885491 -0.33003,-0.615282 -0.70485,-1.337034 -0.84084,-1.665512 -0.0504,-0.284162 0.025,-0.56154 0.54502,-1.019528 0.47731,-0.501916 1.1296,-0.976151 1.383,-1.139571 0.0788,-0.04758 0.13889,-0.05543 0.20931,-0.06969 z"
       style="font-style:normal;font-variant:normal;font-weight:normal;font-stretch:normal;font-size:10.58333302px;line-height:1.25;font-family:Tribal;-inkscape-font-specification:Tribal;letter-spacing:0px;word-spacing:0px;opacity:0.23999999;fill:#ffffff;fill-opacity:1;stroke:none;stroke-width:0.70213932;filter:url(#filter1290-0-4-5-6-9)"
       id="path4062-0-8-7-6"
       inkscape:connector-curvature="0"
       transform="matrix(2.9999998,0,0,2.9999998,-508.00029,-530.50082)" />
    <path
       sodipodi:nodetypes="cccccccccccccccccccccccccccccccccccccccccccccccccccccccccc"
       d="m 345.38315,78.461551 c -0.58438,0.196063 -1.24119,0.819853 -1.45072,1.068173 -0.83985,1.201389 -1.4293,2.586788 -2.27578,3.700136 -0.36075,0.517575 -0.69158,0.869786 -1.11061,1.281056 -0.3741,0.329799 -1.28133,0.661364 -1.68227,0.805708 -1.72542,0.05127 -2.14609,-0.249595 -2.36918,-0.266865 -0.7114,0.10658 0.0602,0.672571 1.66957,1.518162 0.36882,0.282158 1.26096,0.320938 2.09107,0.196148 0.30731,-0.329797 0.47834,-0.133832 0.71391,-0.274364 0.18667,-0.05758 0.76312,-0.575805 1.31595,-0.680618 0.35006,-0.02687 0.20106,2.092376 0.24831,3.103163 0.0139,1.537288 0.014,3.944713 -0.0591,4.281608 -0.20499,0.457529 -0.64726,0.180985 -0.94979,0.390805 -0.26473,0.03197 -0.29863,0.218654 -0.35701,0.266174 -0.12134,0.0558 -0.41905,0.127693 -0.53879,0.262927 -1.32588,0.914571 -0.79676,1.196053 0.12285,0.589201 0.74502,-0.223942 1.20699,-0.193419 1.52664,0.298171 0.20733,0.898019 0.18688,4.073464 0.0875,6.395624 -0.0111,0.63718 -0.0466,1.41006 -0.62617,1.94066 -0.57579,0.60202 -0.74373,0.81473 -1.35427,0.90978 -0.69321,0.17773 -0.3651,0.30868 -2.02767,0.32199 -0.50813,-0.12462 -0.75935,-0.3995 -1.04005,-0.61157 -0.5402,-0.5052 -0.71601,-0.34296 -0.0605,0.55846 0.7089,1.40941 1.958,1.40038 2.80236,1.59114 0.90285,0.19611 2.24587,-0.29767 3.1668,-0.66861 0.24263,-0.093 -0.10219,-0.16918 0.35935,-0.28757 0.30167,-0.0644 0.52068,-0.15486 0.83419,-0.22424 0.10326,-0.11486 0.30019,-0.14025 0.5081,-0.13522 1.99466,-0.0656 5.92859,-0.15974 8.593,0.0709 0.24626,0.068 0.33976,0.80033 0.11822,1.38022 -0.2678,0.25065 0.0802,0.24042 0.25249,0.25279 0.90197,-0.0344 1.28713,-0.0559 1.52217,-0.59454 0.48524,-0.61383 0.49556,-1.52929 0.45618,-2.56918 0.0464,-0.50429 0.39016,-0.93018 0.43993,-1.22545 0.56331,-0.83881 0.81316,-2.0398 1.09209,-3.059603 0.5972,-2.617183 0.55342,-3.692068 0.55806,-4.466315 -0.0137,-0.889239 -0.13437,-0.925256 -0.55066,0.287572 -0.27177,0.747023 -0.28368,1.38346 -0.63813,2.251855 -0.18435,0.01767 -0.20018,0.274085 -0.17742,0.414896 -0.18435,0.377045 -0.24429,0.75409 -0.4751,1.10751 -0.91796,1.689475 -1.4809,2.168035 -1.87927,2.511985 -0.46637,0.43081 -0.7926,0.70201 -1.085,1.02623 -0.42862,0.24153 -0.63049,0.39611 -1.43243,0.48735 -2.27743,0.0574 -4.6781,0.21474 -5.77109,-0.30693 -0.99096,-0.59057 -1.1665,-1.03464 -1.31643,-1.77799 -0.12359,-1.668265 -0.14764,-3.609601 -0.20105,-5.252213 0.668,-0.258827 0.9053,-0.384789 1.24535,-0.662099 0.29463,-0.279017 0.36952,-0.277063 0.50814,-0.537477 0.15606,-0.420758 0.40731,-0.844028 0.49389,-1.104445 0.22427,-0.887096 0.25853,-0.992044 -0.31661,-0.31017 -0.40595,0.505935 -0.57093,0.686637 -0.78947,0.740325 -0.22816,0.09427 -1.02412,0.208497 -1.04695,-0.105712 0.0368,-1.477389 0.14222,-3.57597 0.1582,-4.841228 0.0347,-1.097465 0.12842,-2.126572 0.16292,-3.205439 0.12694,-1.49912 0.15731,-2.827089 0.39485,-4.232499 0.39199,-1.05843 0.80575,-1.619724 1.51484,-2.193632 1.32483,-0.833139 -0.55177,-0.634529 -1.37545,-0.416737 z"
       style="font-style:normal;font-variant:normal;font-weight:normal;font-stretch:normal;font-size:10.58333302px;line-height:1.25;font-family:Tribal;-inkscape-font-specification:Tribal;letter-spacing:0px;word-spacing:0px;opacity:0.23999999;fill:#ffffff;fill-opacity:1;stroke:none;stroke-width:0.67329806;filter:url(#filter1318-9-0-3-4-5)"
       id="path4064-0-9-2-4"
       inkscape:connector-curvature="0"
       transform="matrix(2.9999998,0,0,2.9999998,-508.00029,-530.50082)" />
    <path
       inkscape:connector-curvature="0"
       id="path4066-3-7-2-1"
       style="font-style:normal;font-variant:normal;font-weight:normal;font-stretch:normal;font-size:10.58333302px;line-height:1.25;font-family:Tribal;-inkscape-font-specification:Tribal;letter-spacing:0px;word-spacing:0px;opacity:1;fill:#ffffff;fill-opacity:1;stroke:none;stroke-width:2.10641789"
       d="m 414.71681,-245.71987 c -3.38723,-4.23217 -6.53712,-8.49408 -9.44851,-12.78567 -2.85864,-4.35147 -5.61115,-8.76237 -8.25754,-13.2328 -5.52987,-9.40355 -10.27121,-18.99502 -15.2894,-27.87832 -0.31776,0 -0.68805,0.0603 -1.21751,0.35835 -2.12907,0.83116 -3.7448,1.93725 -5.66306,2.1096 -0.98806,-0.0364 -1.91037,-0.84661 -2.92044,-1.32175 -2.11947,-0.77851 -3.2656,-0.86482 -4.08234,-0.68318 -0.91694,0.43826 0.62852,0.0703 -1.84772,1.51836 -0.9,0.77492 -1.2954,1.18989 -1.93095,2.02423 -4.73824,6.09144 -8.08284,13.73555 -10.5424,20.36381 -0.84725,2.38437 -1.28723,4.21857 -1.81695,6.42398 -0.09,0.49432 0.95276,-0.25755 1.79943,-1.74776 0.84696,-1.54972 2.22702,-4.17084 3.3387,-5.959 3.06861,-4.94167 9.78971,-15.167 13.90819,-14.84979 2.07886,0.41878 2.71217,3.94584 2.48552,5.70537 -2.37744,8.69929 -9.00401,34.19295 -13.45972,49.25324 -0.4318,0.61476 -0.93247,3.09404 -1.47773,4.63979 -0.44648,0.30096 -0.89069,2.75844 -1.21779,3.13671 -0.21167,0.29811 -0.52917,0.38741 -0.95277,0.26816 -1.70632,-1.07212 -3.6926,-4.41217 -5.42433,-7.24614 -1.64338,-3.85808 -3.49927,-7.11648 -4.64706,-10.53402 -0.26471,-0.83449 -0.67,-1.47936 -1.05325,-1.94707 -0.71684,-0.44873 -0.15015,2.2945 0.031,3.48348 0.17442,0.72787 0.62259,2.62858 0.90678,3.27171 0.36492,0.85045 0.62937,0.64373 0.59325,2.12365 1.06596,3.77854 2.70283,7.87564 3.99823,11.13739 1.10828,2.35517 2.04668,4.52504 3.14933,6.37866 0.49162,0.52453 0.75211,0.54142 0.751,1.1702 -0.16172,1.95342 -1.14613,3.92655 -1.52146,5.84996 -0.46228,2.39176 0.63272,2.62493 1.06172,2.62983 8.33035,-7.41807 26.87658,-29.75494 41.56003,-44.56811 1.3208,1.18409 1.74273,2.18204 2.46155,3.22506 0.17328,0.73088 0.38465,1.20853 -0.39314,2.33497 -5.5911,6.55892 -12.40084,11.36134 -18.93909,16.19755 -1.27114,1.05617 -3.72533,2.21269 -3.12221,2.8434 2.16349,0.43807 17.30218,-8.20856 21.78896,-11.10051 1.35353,-0.94972 3.72504,-2.42795 3.8117,-3.04009 0,-0.41722 0.3062,-0.36581 0.51786,-0.24662 1.05241,1.08823 1.60698,2.29714 2.23999,3.45062 1.05723,2.21411 1.82825,5.34373 2.49148,6.85559 0.37026,0.71533 1.59567,3.41 2.0969,1.99554 0.28871,-3.5334 1.86296,-6.12582 4.24942,-8.92633 0.79417,-0.95369 1.45598,-1.84785 1.98543,-2.68237 z m -33.70297,-28.80794 c 1.0555,2.27208 2.24988,8.55779 2.69973,12.714 0.28337,2.65038 0.60113,4.86494 0.52099,7.49358 -0.13772,1.61658 -0.73266,0.96223 -1.16277,-0.066 -0.49331,-2.67274 -1.44467,-4.13991 -2.07179,-6.67856 -0.10639,-0.29803 -0.42418,-3.01464 -1.18449,-3.13547 -0.12022,-0.29941 -0.0962,-0.97227 -0.43518,-1.76903 -0.31242,-0.87051 -0.75523,-1.88873 -1.33631,-2.72918 -0.45889,-0.84577 -1.016,-1.12046 -1.17377,-0.38108 -0.0657,1.12395 0.81619,3.08419 1.06625,4.74361 0.65079,4.19748 0.52435,7.65469 0.51956,11.46315 0.0429,1.60308 0,4.15475 -0.30001,5.67616 -0.6649,2.33876 -2.57387,4.57761 -4.25138,7.07498 -2.46579,3.08145 -7.41595,8.83637 -7.87345,8.66857 -0.33075,-0.036 -0.36631,-1.25237 -0.27545,-2.37521 0.773,-5.04338 1.80877,-9.83472 2.99918,-14.43144 0.63556,-2.4439 1.32363,-4.91111 1.97641,-7.29538 2.50444,-7.13298 6.44229,-18.46098 10.7614,-25.9356 3.03445,3.40487 7.68181,11.4521 8.61653,15.13544 0.1397,1.21415 -0.41318,3.5388 -1.15287,4.28302 -0.15862,0.23837 -0.35335,0.17331 -0.40669,-0.23114 0.0706,-0.19814 -0.0618,-0.59933 -0.25541,-1.02626 -0.3175,-0.83458 -0.59914,-1.31559 -1.1286,-2.32889 -1.13454,-2.17972 -2.28177,-4.51189 -3.53682,-6.54458 -0.47583,-1.01343 -1.11138,-2.31502 -1.85277,-2.62924 0,-0.27141 -0.15579,0 -0.28337,-0.66511 0.11827,-0.62235 -0.48937,-0.82899 -0.75041,-0.5402 -0.29917,0.39174 -0.10499,1.02148 0.27149,1.5099 z"
       sodipodi:nodetypes="ccccccccccccccccccccccccccccccccccccccccccccccccccccccccccccccccccccccccc" />
    <path
       sodipodi:nodetypes="ccccccccccccccccccccccccccccccccccccccccccccccccccccccccccccccccccccccccc"
       d="m 307.57239,94.926942 c -1.12925,-1.410699 -2.1791,-2.831332 -3.14954,-4.261901 -0.9528,-1.450439 -1.87031,-2.920746 -2.75254,-4.410922 -1.84322,-3.134491 -3.42367,-6.331642 -5.09646,-9.292788 -0.10587,0 -0.22931,0.02015 -0.40576,0.119497 -0.70978,0.277043 -1.24828,0.645755 -1.88765,0.703191 -0.32934,-0.01219 -0.63681,-0.282212 -0.97359,-0.440589 -0.70657,-0.259521 -1.08854,-0.288286 -1.36075,-0.227712 -0.30563,0.146055 0.20957,0.0234 -0.61593,0.506111 -0.29996,0.258296 -0.43179,0.396599 -0.64352,0.674766 -1.57945,2.030434 -2.69426,4.578459 -3.51436,6.787924 -0.28233,0.794759 -0.42902,1.406162 -0.60545,2.141315 -0.0301,0.164776 0.3175,-0.08585 0.59976,-0.582577 0.2823,-0.516593 0.74235,-1.390307 1.11288,-1.986378 1.02278,-1.647208 3.26326,-5.055651 4.63606,-4.9499 0.69291,0.139612 0.90406,1.31528 0.82853,1.901791 -0.79254,2.899756 -3.00146,11.39765 -4.48664,16.41775 -0.14384,0.204902 -0.31078,1.031342 -0.49269,1.5466 -0.14869,0.100308 -0.29669,0.91948 -0.40582,1.04555 -0.0705,0.0994 -0.17639,0.12916 -0.3176,0.0894 -0.56863,-0.35739 -1.23078,-1.470724 -1.80807,-2.4154 -0.54775,-1.285986 -1.16641,-2.372161 -1.54912,-3.511317 -0.0882,-0.278167 -0.2233,-0.493121 -0.35101,-0.64904 -0.23904,-0.149561 -0.0498,0.764853 0.01,1.161178 0.058,0.242604 0.20746,0.876177 0.30224,1.090559 0.12161,0.283485 0.20982,0.214596 0.19785,0.707894 0.35526,1.259524 0.90076,2.6252 1.33267,3.712456 0.36938,0.78508 0.68221,1.50835 1.04978,2.12623 0.16383,0.17484 0.2506,0.18046 0.25038,0.39007 -0.0541,0.65113 -0.3821,1.30881 -0.5072,1.94997 -0.154,0.79726 0.21084,0.87498 0.35386,0.87662 2.77677,-2.47269 8.95873,-9.918296 13.85335,-14.856035 0.44028,0.394707 0.581,0.727361 0.82057,1.075032 0.0577,0.243613 0.12817,0.402826 -0.13103,0.778314 -1.86375,2.186306 -4.13367,3.78711 -6.31306,5.399185 -0.42373,0.352046 -1.2418,0.737531 -1.04084,0.9478 0.72126,0.145998 5.76757,-2.736184 7.26315,-3.700203 0.45114,-0.316559 1.24158,-0.809295 1.27052,-1.013333 0,-0.139076 0.10208,-0.121934 0.1726,-0.08221 0.35081,0.362738 0.53569,0.76571 0.74669,1.150198 0.3524,0.738031 0.60946,1.781246 0.83034,2.285198 0.12354,0.238428 0.53196,1.136678 0.69908,0.665171 0.0962,-1.177781 0.62089,-2.041935 1.41652,-2.975426 0.26467,-0.317903 0.48523,-0.615939 0.66168,-0.894106 z m -11.23435,-9.602637 c 0.35181,0.757369 0.74998,2.852594 0.89996,4.238004 0.0943,0.883446 0.20033,1.621666 0.17363,2.497866 -0.0459,0.538839 -0.2443,0.320749 -0.38766,-0.022 -0.16442,-0.890917 -0.48157,-1.379979 -0.69052,-2.226194 -0.0353,-0.09935 -0.14138,-1.00487 -0.3949,-1.045192 -0.0399,-0.09977 -0.0319,-0.324079 -0.145,-0.589676 -0.10413,-0.290131 -0.25169,-0.629532 -0.44535,-0.909693 -0.15306,-0.281923 -0.33863,-0.373485 -0.39132,-0.12704 -0.0218,0.374642 0.27209,1.02807 0.35531,1.581233 0.21695,1.399142 0.17481,2.551521 0.17311,3.821029 0.0145,0.534339 0.002,1.384923 -0.0999,1.892049 -0.22168,0.779581 -0.85786,1.525855 -1.41716,2.358316 -0.82202,1.027163 -2.47185,2.945488 -2.62442,2.889569 -0.11032,-0.012 -0.12206,-0.417514 -0.0918,-0.791785 0.25765,-1.681113 0.60286,-3.278234 0.99984,-4.810452 0.21173,-0.81463 0.44111,-1.637043 0.65861,-2.431802 0.83484,-2.377648 2.14741,-6.153692 3.5872,-8.645215 1.01151,1.134959 2.56067,3.817377 2.87222,5.045169 0.0464,0.404715 -0.13779,1.179596 -0.38429,1.427668 -0.0529,0.07947 -0.11775,0.05773 -0.13568,-0.07704 0.0236,-0.06606 -0.0205,-0.199787 -0.085,-0.342119 -0.10587,-0.278165 -0.19977,-0.438487 -0.37621,-0.776261 -0.37817,-0.726592 -0.76056,-1.503991 -1.17898,-2.181561 -0.15857,-0.337774 -0.37038,-0.771644 -0.61769,-0.876388 9.7e-4,-0.09046 -0.0517,-5.64e-4 -0.0943,-0.221703 0.0394,-0.207483 -0.16316,-0.27633 -0.25025,-0.180062 -0.0998,0.130574 -0.035,0.340456 0.0906,0.503276 z"
       style="font-style:normal;font-variant:normal;font-weight:normal;font-stretch:normal;font-size:10.58333302px;line-height:1.25;font-family:Tribal;-inkscape-font-specification:Tribal;letter-spacing:0px;word-spacing:0px;opacity:0.23999999;fill:#ffffff;fill-opacity:1;stroke:none;stroke-width:0.70213932;filter:url(#filter1234-7-5-3-8-8)"
       id="path4068-0-8-5-3"
       inkscape:connector-curvature="0"
       transform="matrix(2.9999998,0,0,2.9999998,-508.00029,-530.50082)" />
    <path
       inkscape:connector-curvature="0"
       id="path4070-6-3-3-0"
       style="font-style:normal;font-variant:normal;font-weight:normal;font-stretch:normal;font-size:10.58333302px;line-height:1.25;font-family:Tribal;-inkscape-font-specification:Tribal;letter-spacing:0px;word-spacing:0px;opacity:1;fill:#ffffff;fill-opacity:1;stroke:none;stroke-width:2.05824256"
       d="m 407.86333,-211.24048 c 12.43047,0.47426 28.07605,-6.54191 39.24753,-18.46961 5.60493,-6.071 9.73836,-12.91725 10.09255,-20.68809 0.2811,-0.75089 0.64601,-1.475 1.09501,-2.17223 0.50546,-0.69723 0.9271,-1.42134 1.26381,-2.17215 1.06791,-2.36 0.61468,-5.49841 0.44619,-7.91199 -0.11261,-0.48268 -0.19672,-1.01905 -0.25231,-1.60907 -0.0553,-0.6436 -0.16848,-1.17991 -0.33726,-1.60901 -0.0564,-0.10723 -0.11176,-0.0805 -0.1682,0.0804 -0.0553,0.16082 -0.1126,0.34862 -0.16848,0.56314 0,0.21447 -0.0282,0.42903 -0.0844,0.64363 v 0.32173 c -0.11202,0.32189 -0.19613,0.64371 -0.2523,0.96539 0,0.32186 -0.0553,0.64373 -0.1682,0.96554 -0.2808,1.07268 -0.17581,1.9739 -0.73744,2.40295 -0.5619,0.42915 -1.25701,0.53467 -2.26116,0.61722 -0.28109,0 -0.42108,-0.0804 -0.42108,-0.24136 0.10498,-0.64166 -0.20604,-1.2578 -0.31891,-1.80019 -0.22465,-0.53645 -1.28807,-1.67585 -1.73794,-2.26584 -0.44929,-0.59002 -0.95475,-1.12636 -1.51638,-1.60907 -0.50601,-0.48276 -1.06735,-0.885 -1.68513,-1.20679 -0.6178,-0.32186 -1.23558,-0.53636 -1.85335,-0.64365 -0.44958,-0.37544 -1.64283,-0.54697 -2.87841,-0.81513 -9.39911,-2.29166 -20.89488,-1.34588 -27.77291,-2.99651 -1.94932,-0.39338 -1.66174,-4.0477 -1.41393,-5.87171 1.09952,-2.14842 4.73286,-4.52697 5.11413,-5.80454 -0.7143,-0.1529 -4.14216,2.21168 -5.68309,3.34746 -2.15506,1.57445 -3.32206,3.44564 -4.3818,5.55114 -1.76416,3.17752 -2.77677,0.43627 -2.0574,-2.08653 2.19004,-4.53562 6.02772,-7.58507 9.97768,-9.73997 3.94999,-1.68677 5.70005,-1.23534 7.95417,-1.08675 4.76136,0.75499 9.68388,1.6424 13.98156,4.70582 -0.50009,0.74851 -0.85878,0.74568 -1.42859,1.50231 -2.06333,2.73955 -3.45922,5.60477 -5.03656,8.46656 -0.51165,0.68807 -1.511,2.75582 1.3716,0.84931 1.05016,-1.95916 4.30022,-6.11613 5.4105,-5.77601 -0.87998,1.77847 -3.57632,3.35375 -4.04368,5.05656 1.97921,-0.54875 3.87209,-1.41367 5.87925,-2.37004 1.59229,-0.56853 4.09985,-2.19112 5.16691,-2.88835 2.46804,-2.23094 4.17098,-6.20207 3.26729,-8.13757 -1.57311,-1.50181 -3.67369,-2.45968 -6.20099,-3.42514 -9.58397,-3.8209 -18.36107,-4.62934 -32.63929,-2.89086 -4.3194,0.56332 -5.49034,0.93823 -8.4102,1.70291 -1.11083,0.2345 -0.99513,0.69776 0.34486,0.58941 4.91971,-0.44614 9.29415,-1.13554 12.85044,0.4695 -0.096,0.68025 -6.45528,3.5133 -14.02503,12.86809 -2.00999,2.7718 -4.1786,5.30424 -5.18952,8.415 -1.51045,3.67199 1.37555,8.46116 3.65168,11.35438 0.14703,0.63595 0,-0.97846 0,-1.12631 -0.3034,-2.49116 -0.61159,-4.3875 0.95983,-6.29227 0.28053,-0.0536 0.95139,-0.39073 1.2319,-0.44442 6.11999,0.49988 12.21994,1.00071 17.43117,1.25492 9.42851,0.33036 20.27486,1.1143 20.32452,2.63787 0.89805,1.12493 1.53221,17.71642 -4.10096,24.76598 -1.13453,2.257 -5.99609,3.53187 -5.17792,4.39457 3.49954,-0.26511 8.3947,-5.27566 10.36714,-8.36972 3.3768,-4.73461 4.73427,-13.61109 5.72207,-15.67495 2.43104,4.02868 2.06782,10.85773 -0.096,14.92446 -4.72411,9.94293 -15.0972,18.33253 -25.52361,21.30012 -5.86883,1.57866 -13.08299,2.62252 -21.3473,-2.33053 -3.81225,-3.69909 7.35753,-24.24898 21.40204,-29.23389 1.91066,-0.80346 2.91481,-0.58013 3.16542,-1.38724 -16.30399,3.46319 -24.25729,9.34567 -32.90543,22.85759 -4.30446,-14.83915 18.79147,-25.05961 22.67767,-26.8733 -6.84784,0.72461 -27.46586,9.70317 -30.26889,19.43113 -2.20696,6.05589 0.15156,17.77455 2.78469,21.42487 0.9285,-0.64333 -0.14084,-6.37891 1.31487,-5.39625 8.12263,7.00124 8.66085,8.47841 18.04755,8.98705 z"
       sodipodi:nodetypes="ccccccccccccccccccccccccccccccccscccccccccccccccccccccccccccccccccccc" />
    <path
       sodipodi:nodetypes="ccccccccccccccccccccccccccccccccscccccccccccccccccccccccccccccccccccc"
       d="m 305.28793,106.42008 c 4.14334,0.15809 9.35858,-2.18064 13.08243,-6.15652 1.86824,-2.023668 3.24623,-4.305735 3.36421,-6.896041 0.0936,-0.250296 0.21528,-0.491652 0.36508,-0.724069 0.16841,-0.232419 0.30883,-0.473775 0.42126,-0.72407 0.35571,-0.786643 0.20481,-1.83279 0.14864,-2.637311 -0.0375,-0.160904 -0.0655,-0.339687 -0.0841,-0.536348 -0.0187,-0.214539 -0.0562,-0.39332 -0.11226,-0.536345 -0.0188,-0.03576 -0.0375,-0.02683 -0.0562,0.0268 -0.0187,0.05364 -0.0375,0.116211 -0.0562,0.187713 0,0.07151 -0.009,0.143024 -0.0281,0.214547 v 0.107261 c -0.0375,0.107269 -0.0655,0.214539 -0.0841,0.321809 0,0.107269 -0.0187,0.214539 -0.0562,0.321809 -0.0936,0.357565 -0.0586,0.657974 -0.24585,0.801 -0.18724,0.143031 -0.41898,0.178203 -0.75368,0.205743 -0.0936,0 -0.14037,-0.02682 -0.14037,-0.08046 0.0351,-0.213879 -0.0686,-0.419268 -0.10632,-0.600096 -0.0748,-0.178782 -0.42937,-0.558604 -0.57922,-0.755265 -0.14984,-0.196661 -0.31834,-0.375443 -0.5055,-0.536348 -0.16859,-0.160904 -0.35582,-0.294991 -0.56168,-0.40226 -0.20595,-0.10727 -0.41189,-0.178786 -0.61784,-0.214548 -0.14984,-0.125142 -0.54761,-0.182298 -0.95945,-0.271695 -3.13299,-0.763891 -6.96494,-0.448648 -9.2577,-0.99884 -0.64964,-0.131129 -0.55388,-1.349253 -0.47124,-1.957232 0.36659,-0.716138 1.57758,-1.508997 1.70474,-1.934843 -0.23815,-0.05099 -1.38084,0.737221 -1.89449,1.115776 -0.71817,0.524864 -1.1072,1.148581 -1.4604,1.850398 -0.58818,1.05916 -0.92565,0.145411 -0.68606,-0.695497 0.73022,-1.511877 2.00931,-2.528384 3.32605,-3.24666 1.31665,-0.562264 1.89997,-0.411787 2.65135,-0.362252 1.58728,0.251635 3.22806,0.547472 4.66054,1.568599 -0.16658,0.249508 -0.28623,0.248574 -0.47617,0.500774 -0.68777,0.913165 -1.15312,1.868254 -1.67879,2.822178 -0.17056,0.229383 -0.50382,0.918606 0.4572,0.283116 0.3499,-0.653051 1.43342,-2.03872 1.80349,-1.92533 -0.29334,0.592813 -1.19213,1.117906 -1.34802,1.685519 0.65988,-0.18289 1.29083,-0.471234 1.95972,-0.79003 0.53082,-0.189482 1.36666,-0.730343 1.7224,-0.962759 0.82261,-0.743645 1.39022,-2.067343 1.08895,-2.712528 -0.52422,-0.50059 -1.22429,-0.819915 -2.06681,-1.141724 -3.19469,-1.273609 -6.12034,-1.543108 -10.87976,-0.963636 -1.43999,0.187791 -1.83004,0.31277 -2.80346,0.567655 -0.37032,0.07815 -0.3317,0.232596 0.11493,0.196466 1.63985,-0.148707 3.09815,-0.378513 4.28345,0.156509 -0.032,0.226735 -2.15168,1.171073 -4.67497,4.28935 -0.67,0.923923 -1.39292,1.768058 -1.72992,2.804995 -0.50335,1.224014 0.45858,2.820404 1.21738,3.7848 0.0491,0.211989 -5.8e-4,-0.326156 0,-0.375436 -0.10114,-0.830387 -0.20392,-1.462496 0.31984,-2.097414 0.0936,-0.01787 0.31712,-0.130244 0.41076,-0.148134 2.04,0.166618 4.07332,0.33356 5.81031,0.418293 3.1428,0.110128 6.75824,0.371435 6.77492,0.879287 0.2992,0.374994 0.51061,5.905485 -1.36713,8.255325 -0.37809,0.752343 -1.9987,1.177314 -1.72596,1.464864 1.16665,-0.08838 2.79825,-1.758526 3.45571,-2.789918 1.12567,-1.578197 1.5782,-4.537022 1.90741,-5.224979 0.81026,1.342926 0.68934,3.619257 -0.032,4.974849 -1.57464,3.314283 -5.03239,6.110833 -8.50791,7.100013 -1.95622,0.52624 -4.36087,0.87418 -7.11572,-0.77682 -1.27073,-1.23303 2.45258,-8.08301 7.13398,-9.744651 0.63697,-0.267799 0.9717,-0.193366 1.05526,-0.462406 -5.43472,1.15438 -8.08587,3.115214 -10.96864,7.619197 -1.43463,-4.946386 6.26397,-8.353207 7.55927,-8.957761 -2.28258,0.241539 -9.15527,3.234365 -10.0895,6.477049 -0.73576,2.018612 0.0505,5.924812 0.92816,7.141612 0.30953,-0.21443 -0.0472,-2.12632 0.43839,-1.79874 2.7074,2.33371 2.88691,2.82613 6.01585,2.99566 z"
       style="font-style:normal;font-variant:normal;font-weight:normal;font-stretch:normal;font-size:10.58333302px;line-height:1.25;font-family:Tribal;-inkscape-font-specification:Tribal;letter-spacing:0px;word-spacing:0px;opacity:0.23999999;fill:#ffffff;fill-opacity:1;stroke:none;stroke-width:0.68608087;filter:url(#filter1262-47-1-5-7-9)"
       id="path4072-0-2-1-6"
       inkscape:connector-curvature="0"
       transform="matrix(2.9999998,0,0,2.9999998,-508.00029,-530.50082)" />
  </g>
</svg>
